<svg xmlns="http://www.w3.org/2000/svg" width="2036" height="2043"><path d="M928 70c24.396 21.883 29.782 84 31.626 114.403C963.073 252.99 945.535 321.756 909 380a41.379 41.379 0 0 0 7.617-4.617l2.068-1.571 2.19-1.687 2.278-1.749c7.165-5.548 14.061-11.372 20.847-17.376l2.633-2.328c2.47-2.208 4.92-4.439 7.367-6.672l2.625-2.344c7.99-7.226 15.626-14.798 23.25-22.406l1.654-1.646c5.506-5.485 10.952-10.98 16.004-16.892 2.208-2.577 4.529-5.04 6.842-7.524a273.285 273.285 0 0 0 12.137-14.11c1.859-2.3 3.734-4.577 5.633-6.844 9.018-10.79 17.528-21.903 25.855-33.234.571-.775 1.143-1.55 1.731-2.35A701.902 701.902 0 0 0 1096 165l1.453-2.573C1112.75 135.214 1126.175 107.014 1135 77h2c18.26 45.192 30.782 92.02 32 141l.066 2.626c.728 34.676-2.713 69.896-12.066 103.374l-.839 3.003c-4.674 16.438-10.47 32.278-17.161 47.997l-1.177 2.775A285.85 285.85 0 0 1 1121 411c22.027-7.411 42.47-24.15 59.383-39.629a333.391 333.391 0 0 1 6.355-5.59c4.636-4.048 8.985-8.357 13.324-12.719l2.315-2.302A261.829 261.829 0 0 0 1216 336c.95-1.083 1.9-2.165 2.852-3.246 7.8-8.943 15.066-18.234 22.148-27.754l1.597-2.14C1268.42 268.13 1290.794 230.187 1307 190c3.755 1.252 4.003 2.272 5.855 5.68l1.625 2.975 1.707 3.22 1.763 3.3c4.949 9.397 9.325 18.882 13.05 28.825l.928 2.453c7.002 18.812 12.264 39.413 12.205 59.59l.003 2.217c0 1.531-.001 3.063-.006 4.595-.005 2.337 0 4.674.007 7.01 0 1.497-.002 2.994-.004 4.49l.006 2.1c-.018 3.64-.278 7.004-1.139 10.545l2.006.524c54.055 14.399 106.649 40.558 154.52 69.019 3.11 1.831 6.256 3.582 9.411 5.332 25.05 14.275 48.866 31.038 72.063 48.125l2.084 1.534c9.83 7.255 19.431 14.767 28.916 22.466l2.926 2.367c9.8 7.971 19.46 16.092 28.812 24.586A430.197 430.197 0 0 0 1650 506.5c15.404 13.452 30.151 27.557 44.625 42l1.705 1.697c5.544 5.524 11.033 11.05 16.118 17.006 2.705 3.132 5.58 6.106 8.427 9.11 4.996 5.303 9.741 10.697 14.258 16.417 1.846 2.331 1.846 2.331 4.11 4.446C1741 599 1741 599 1741 601c58.484-11.993 117.79-24.946 171.054-52.989a335.27 335.27 0 0 1 6.294-3.163c28.044-14.033 52.588-33.515 75.353-54.89 2.996-2.805 6.083-5.412 9.299-7.958-.577 9.421-1.703 18.682-3.188 28l-.327 2.08c-5.231 33.013-13.16 65.144-23.485 96.92l-.91 2.812C1961.06 654.742 1939.798 695.68 1913 732l-1.578 2.14c-7.688 10.365-15.83 20.235-24.422 29.86l-2.488 2.828c-6.326 7.063-13.008 13.771-19.7 20.485l-1.435 1.443c-5.615 5.64-11.305 11.1-17.377 16.244l-1.708 1.47c-6.273 5.401-12.588 10.666-19.292 15.53.619 3.781 1.724 6.905 3.336 10.375l1.459 3.188 1.58 3.437c6.51 14.436 12.253 29.102 17.625 44 .24.664.48 1.329.729 2.013 23.546 65.16 38.424 133.154 45.458 202.05l.24 2.3c3.002 29.25 3.953 58.44 3.89 87.824-.005 2.67-.007 5.34-.009 8.01-.031 25.928-.5 51.705-3.083 77.524a856.083 856.083 0 0 0-.647 6.897c-7.439 81.797-25.527 163.985-118.578 354.382-.59.821-1.178 1.643-1.785 2.49a1633.222 1633.222 0 0 1-5.715 7.885l-1.818 2.509-1.713 2.327-1.518 2.072C1763 1643 1763 1643 1760 1645a13286.049 13286.049 0 0 1-4.625-42.125A336611.049 336611.049 0 0 0 1753 1581l-1.158 3.003c-13.994 36.26-13.994 36.26-20.842 51.997h-2l-6-23-2.86 5.422c-12.205 23.04-25.44 45.021-40.14 66.578l-1.854 2.722c-7.784 11.388-15.946 22.407-24.516 33.215a695.837 695.837 0 0 0-4.638 5.946c-4.733 6.115-9.598 12.026-14.84 17.719-2.17 2.419-4.193 4.915-6.215 7.46-7.618 9.42-16.119 18.175-24.714 26.704-2.9 2.882-5.554 5.894-8.157 9.046-1.855 1.965-3.755 3.685-5.8 5.446-4.25 3.669-8.16 7.602-12.079 11.617-5.241 5.31-10.55 10.252-16.425 14.863-3.34 2.735-6.444 5.669-9.574 8.637-5.614 5.295-11.453 10.123-17.57 14.82-3.184 2.447-6.285 4.982-9.38 7.54-8.417 6.945-17.134 13.37-26.03 19.684a402.198 402.198 0 0 0-6.118 4.48c-32.279 23.95-66.963 44.974-102.486 63.724a878.463 878.463 0 0 0-7.213 3.865c-67.972 36.58-141.289 63.048-363.766 97.824l-3.975-.006c-21.028-.047-41.782-.681-62.65-3.306l-2.474-.309c-59.487-7.48-116.951-21.473-173.577-41.02-1.801-.62-3.604-1.237-5.406-1.853-48.73-16.727-96.544-38.597-141.112-64.42a544.647 544.647 0 0 0-8.532-4.783c-17.802-9.863-34.855-20.793-51.712-32.178l-2.33-1.57c-19.554-13.208-38.576-27.03-56.84-41.978a509.24 509.24 0 0 0-11.461-9.107c-6.37-4.913-12.313-10.108-18.13-15.665-2.769-2.594-5.69-4.951-8.653-7.32-5.883-4.774-11.172-10.005-16.46-15.422-5.376-5.48-10.71-10.9-16.596-15.836-2.513-2.253-4.625-4.8-6.803-7.371-2.206-2.499-4.54-4.827-6.914-7.168-4.217-4.179-8.148-8.487-12-13-.977-1.126-1.955-2.25-2.934-3.375-2.819-3.239-5.63-6.485-8.435-9.736-1.032-1.196-2.066-2.39-3.102-3.582-6.559-7.555-12.673-15.359-18.623-23.4a412.859 412.859 0 0 0-6.743-8.839c-5.52-7.061-10.627-14.369-15.634-21.8-1.06-1.571-2.122-3.14-3.187-4.707-15.132-22.273-29.287-45.452-41.342-69.561l-6 23h-2a8587.48 8587.48 0 0 1-5.542-13.373 3397.41 3397.41 0 0 0-1.873-4.516c-5.102-12.281-9.906-24.663-14.585-37.111l-.427 3.937a188534.145 188534.145 0 0 1-2.286 21.052c-1.411 13.006-2.834 26.01-4.287 39.011-56.282-55.725-88.465-149.396-135.78-377.65a1072.17 1072.17 0 0 0-.678-6.94c-5.245-53.208-5.142-108.947.23-162.137.23-2.301.45-4.603.666-6.906 7.579-79.954 25.996-159.276 67.922-260.368l1.058-2.28.93-1.971c.827-1.906.827-1.906.652-4.748a91.462 91.462 0 0 0-6.188-4.938c-6.234-4.724-11.998-9.77-17.68-15.14-2.203-2.083-4.465-4.075-6.769-6.047-5.125-4.462-9.924-9.25-14.726-14.053-1.563-1.56-3.134-3.113-4.705-4.666-5.695-5.663-10.995-11.433-15.978-17.741-1.951-2.412-4.007-4.665-6.142-6.915C78.785 686.323 31.53 571.757 33 482c4.894 4.134 9.602 8.405 14.25 12.813C53.297 500.488 59.464 505.887 66 511l1.817 1.447C84.134 525.427 101.597 536.238 120 546l1.969 1.045C141.877 557.509 162.73 565.765 184 573l3.332 1.137c27.805 9.406 56.114 16.27 84.852 22.084 2.663.544 5.32 1.102 7.976 1.679l4.059.862 3.654.791c2.903.415 4.464.579 7.127-.553a99.396 99.396 0 0 0 5.813-6.063l1.625-1.802c3.26-3.627 6.47-7.298 9.664-10.983 6.635-7.523 13.459-14.88 20.668-21.859 1.927-1.981 3.718-4.008 5.515-6.106 3.541-4.076 7.358-7.734 11.34-11.375 5.233-4.837 10.369-9.74 15.375-14.812 3.829-3.87 7.703-7.614 11.855-11.137 2.307-2.004 4.538-4.076 6.77-6.162a294.16 294.16 0 0 1 16.695-14.49c2.813-2.32 5.498-4.742 8.18-7.211 5.33-4.894 10.867-9.462 16.5-14 1.265-1.033 2.53-2.067 3.793-3.102 7.665-6.27 15.388-12.435 23.273-18.425 2.264-1.725 4.521-3.458 6.778-5.192 10.528-8.073 21.153-15.98 31.946-23.696a1300.93 1300.93 0 0 0 6.769-4.894l2.317-1.682c1.412-1.026 2.824-2.053 4.234-3.082 14.349-10.4 29.142-20.2 43.827-30.115l2.86-1.93c13.791-9.304 27.658-18.45 41.734-27.32 3.738-2.365 7.448-4.775 11.157-7.187 15.09-9.787 30.297-19.386 45.556-28.907 13.792-8.606 27.524-17.305 41.231-26.046 4.254-2.711 8.51-5.415 12.782-8.099a1834.446 1834.446 0 0 0 33.556-21.635c.822-.543 1.645-1.085 2.493-1.643 33.12-21.827 66.098-44.219 96.237-70.09a733.47 733.47 0 0 1 6.669-5.646c7.985-6.711 15.538-13.744 22.885-21.146 1.725-1.736 3.461-3.46 5.198-5.184 6.69-6.682 12.878-13.521 18.705-20.979l1.468-1.832C906.376 115.293 918.655 93.67 928 70Z" fill="#FCD434"/><path d="M212 823c4.223 1.436 7.163 3.522 10.625 6.313 22.71 17.921 47.884 32.88 73.08 46.995 4.381 2.458 8.723 4.944 12.994 7.587 6.193 3.742 12.686 6.861 19.173 10.052 3.482 1.723 6.942 3.486 10.405 5.244a1292.08 1292.08 0 0 0 58.586 27.858 3677.5 3677.5 0 0 1 6.592 2.943 4627.395 4627.395 0 0 0 74.46 32.52c25.605 10.929 51.154 21.95 76.491 33.49 5.622 2.56 11.255 5.096 16.89 7.627 33.49 15.054 66.815 30.93 98.895 48.808 3.014 1.677 6.036 3.339 9.059 5 12.133 6.698 23.989 13.68 35.627 21.203 2.649 1.697 5.328 3.342 8.009 4.987 25.011 15.389 48.847 32.798 71.677 51.248l2.059 1.66c3.296 2.681 6.447 5.377 9.378 8.465l-2.563.297c-12.455 1.642-19.78 5.434-28.437 14.703-6.302 8.668-8.244 18.42-7 29 2.992 11.107 7.811 19.732 17.742 25.746 9.358 5.197 19.677 5.668 30.149 3.715 4.553-1.41 8.287-3.595 12.109-6.461l2.5-1.688c9.624-8.901 11.882-19.71 12.5-32.312 2.36 1.97 4.686 3.976 7 6l1.836 1.559c1.664 1.504 1.664 1.504 4.164 4.441.07 3.655-1.298 5.573-3.668 8.164a227.196 227.196 0 0 1-3.52 3.461l-1.909 1.863c-33.12 31.798-75.012 46.628-120.544 45.971-42.409-.977-81.852-21.552-111.242-51.37-1.793-1.97-3.46-4.001-5.117-6.089l-1.295-1.61c-13.635-17.077-23.761-35.756-29.893-56.765l-.721-2.464c-3.703-13.278-5.564-25.9-5.372-39.662.031-2.262.04-4.523.047-6.784.044-8.28.377-16.472 1.234-24.715-36.113-13.047-72.43-25.302-109-37a546.529 546.529 0 0 0-1.185 36.259 1288.4 1288.4 0 0 1-.04 8.02A258.67 258.67 0 0 0 466 1102l.443 3.381c2.052 14.53 5.296 28.586 9.557 42.619l.71 2.365c12.243 40.2 33.762 77.21 62.063 108.186a264.497 264.497 0 0 1 4.266 4.804A206.485 206.485 0 0 0 575 1293l1.884 1.416c40.317 30.165 85.236 49.475 134.866 57.897l2.845.483c13.466 2.156 26.925 2.442 40.53 2.454l2.655.004c19.357-.006 38.519-1.248 57.4-5.8 3.183-.512 4.836-.718 7.82.546a64.872 64.872 0 0 1 4.938 7.188l2.921 4.699 1.55 2.529c2.706 4.395 5.5 8.735 8.279 13.084l3.582 5.637a6750.616 6750.616 0 0 0 13.623 21.327L864 1414a13670.052 13670.052 0 0 1 24.716 38.699c6.388 10.044 12.81 20.068 19.23 30.093 2.08 3.25 4.16 6.5 6.238 9.751 5.834 9.125 11.669 18.248 17.566 27.332 4.315 6.647 8.553 13.34 12.775 20.047a1344.644 1344.644 0 0 0 9.85 15.39c4.738 7.297 9.416 14.63 14.082 21.972a7914.728 7914.728 0 0 0 15.574 24.387 6209.366 6209.366 0 0 1 14.86 23.328c2.925 4.604 5.877 9.188 8.87 13.747l1.838 2.802c1.16 1.764 2.323 3.526 3.492 5.285l1.557 2.37 1.38 2.083C1017 1653 1017 1653 1017 1655h2l.804-2.183c1.215-2.862 2.64-5.287 4.329-7.895l1.919-2.98 2.073-3.192 3.249-5.038c1.125-1.744 2.252-3.487 3.378-5.23 3.541-5.48 7.048-10.983 10.56-16.482a3616.103 3616.103 0 0 1 13.438-20.875c4.315-6.647 8.553-13.34 12.775-20.047a1344.644 1344.644 0 0 1 9.85-15.39c4.14-6.374 8.237-12.773 12.313-19.188a8161.776 8161.776 0 0 1 15.187-23.813l2.018-3.151 8.148-12.723c7-10.929 13.996-21.86 20.959-32.813 8.317-13.081 16.68-26.133 25.041-39.187l6.084-9.5 1.993-3.113c3.27-5.11 6.535-10.224 9.788-15.345l1.898-2.987c1.17-1.842 2.338-3.684 3.505-5.527A728.213 728.213 0 0 1 1199 1372a1130.062 1130.062 0 0 1 16.883 4.684A317.056 317.056 0 0 0 1261 1386l3.6.533c5.372.662 10.743.649 16.15.67l3.425.017c2.394.01 4.788.016 7.181.02 3.577.01 7.153.04 10.73.072 19.612.092 38.884-1.478 58.039-5.874l3.335-.76c75.623-17.984 141.69-65.157 182.645-131.16 18.115-29.759 30.807-61.35 37.895-95.518l.46-2.172c3.868-18.51 4.946-36.647 4.915-55.515v-3.403c-.027-17.958-.937-35.253-4.375-52.91l-.566-2.931c-1.486-8.768-1.486-8.768-4.434-17.069-11.025 3.53-22.045 7.073-33.063 10.625l-2.455.791c-21.444 6.915-42.827 13.922-63.951 21.772l-2.175.805c-1.857.69-3.71 1.388-5.562 2.087-2.794.92-2.794.92-5.794.92l1.355 3.418c7.98 20.584 13.696 42.344 12.645 64.582l-.108 2.42c-2.152 42.81-20.45 83.905-52.455 112.955A248.124 248.124 0 0 1 1424 1244l-1.62 1.304c-33.825 27.004-77.03 40.742-120.349 36.231-37.135-4.589-69.163-20.916-96.031-46.535l-2.398-2.238c-8.582-8.236-15.496-17.634-21.665-27.762l-1.158-1.887c-1.983-3.355-3.54-6.201-3.779-10.113 1.504-2.2 1.504-2.2 3.777-4.398l2.498-2.454 2.662-2.523 2.557-2.5a313.908 313.908 0 0 1 13.623-12.476c3.146-2.755 6.16-5.648 9.196-8.524 5.165-4.857 10.42-9.504 15.964-13.93 2.475-1.995 4.892-4.046 7.3-6.122 7.23-6.22 14.777-11.94 22.45-17.6a300.622 300.622 0 0 0 5.387-4.125C1289.48 1097.33 1319.294 1079 1349 1062l2.622-1.508c25.998-14.91 52.753-28.924 79.94-41.554l2.146-1.004 4.294-2.003c1.808-.842 3.614-1.687 5.42-2.533 2.378-1.112 4.756-2.221 7.137-3.328a2314.45 2314.45 0 0 0 10.164-4.765c31.054-14.582 62.604-28.05 94.145-41.537A6367.983 6367.983 0 0 0 1612 939l1.967-.864A2199.398 2199.398 0 0 0 1694 901l3.048-1.48c13.304-6.473 26.218-13.485 39.043-20.858a923.428 923.428 0 0 1 8.804-4.955c12.294-6.855 24.309-14.025 36.105-21.707l3.246-2.105c12.153-7.998 24.036-16.43 35.531-25.348C1822 823 1822 823 1824 823c8.887 19.088 17.196 38.227 24.305 58.062.716 1.995 1.435 3.989 2.155 5.982 23.2 64.492 37.77 131.872 44.727 200.019l.24 2.3c3.002 29.25 3.953 58.44 3.89 87.824-.005 2.67-.007 5.34-.009 8.01-.031 25.928-.5 51.705-3.083 77.524a856.083 856.083 0 0 0-.647 6.897c-7.439 81.797-25.527 163.985-118.578 354.382-.59.821-1.178 1.643-1.785 2.49a1633.222 1633.222 0 0 1-5.715 7.885l-1.818 2.509-1.713 2.327-1.518 2.072C1763 1643 1763 1643 1760 1645a13286.049 13286.049 0 0 1-4.625-42.125A336611.05 336611.05 0 0 0 1753 1581l-1.158 3.003c-13.994 36.26-13.994 36.26-20.842 51.997h-2l-6-23-2.86 5.422c-12.205 23.04-25.44 45.021-40.14 66.578l-1.854 2.722c-7.784 11.388-15.946 22.407-24.516 33.215a695.837 695.837 0 0 0-4.638 5.946c-4.733 6.115-9.598 12.026-14.84 17.719-2.17 2.419-4.193 4.915-6.215 7.46-7.618 9.42-16.119 18.175-24.714 26.704-2.9 2.882-5.554 5.894-8.157 9.046-1.855 1.965-3.755 3.685-5.8 5.446-4.25 3.669-8.16 7.602-12.079 11.617-5.241 5.31-10.55 10.252-16.425 14.863-3.34 2.735-6.444 5.669-9.574 8.637-5.614 5.295-11.453 10.123-17.57 14.82-3.184 2.447-6.285 4.982-9.38 7.54-8.417 6.945-17.134 13.37-26.03 19.684a402.198 402.198 0 0 0-6.118 4.48c-32.279 23.95-66.963 44.974-102.486 63.724a878.463 878.463 0 0 0-7.213 3.865c-67.972 36.58-141.289 63.048-363.766 97.824l-3.975-.006c-21.028-.047-41.782-.681-62.65-3.306l-2.474-.309c-59.487-7.48-116.951-21.473-173.577-41.02-1.801-.62-3.604-1.237-5.406-1.853-48.73-16.727-96.544-38.597-141.112-64.42a544.647 544.647 0 0 0-8.532-4.783c-17.802-9.863-34.855-20.793-51.712-32.178l-2.33-1.57c-19.554-13.208-38.576-27.03-56.84-41.978a509.24 509.24 0 0 0-11.461-9.107c-6.37-4.913-12.313-10.108-18.13-15.665-2.769-2.594-5.69-4.951-8.653-7.32-5.883-4.774-11.172-10.005-16.46-15.422-5.376-5.48-10.71-10.9-16.596-15.836-2.513-2.253-4.625-4.8-6.803-7.371-2.206-2.499-4.54-4.827-6.914-7.168-4.217-4.179-8.148-8.487-12-13-.977-1.126-1.955-2.25-2.934-3.375-2.819-3.239-5.63-6.485-8.435-9.736-1.032-1.196-2.066-2.39-3.102-3.582-6.559-7.555-12.673-15.359-18.623-23.4a412.859 412.859 0 0 0-6.743-8.839c-5.52-7.061-10.627-14.369-15.634-21.8-1.06-1.571-2.122-3.14-3.187-4.707-15.132-22.273-29.287-45.452-41.342-69.561l-6 23h-2a8587.48 8587.48 0 0 1-5.542-13.373 3397.41 3397.41 0 0 0-1.873-4.516c-5.102-12.281-9.906-24.663-14.585-37.111l-.427 3.937a188534.145 188534.145 0 0 1-2.286 21.052c-1.411 13.006-2.834 26.01-4.287 39.011-56.282-55.725-88.465-149.396-135.78-377.65a1072.17 1072.17 0 0 0-.678-6.94c-5.245-53.208-5.142-108.947.23-162.137.23-2.301.45-4.603.666-6.906C148.013 1011.456 166.424 932.19 212 823Z" fill="#633066"/><path d="M928 70c24.396 21.883 29.782 84 31.626 114.403C963.073 252.99 945.535 321.756 909 380a41.379 41.379 0 0 0 7.617-4.617l2.068-1.571 2.19-1.687 2.278-1.749c7.165-5.548 14.061-11.372 20.847-17.376l2.633-2.328c2.47-2.208 4.92-4.439 7.367-6.672l2.625-2.344c7.99-7.226 15.626-14.798 23.25-22.406l1.654-1.646c5.506-5.485 10.952-10.98 16.004-16.892 2.208-2.577 4.529-5.04 6.842-7.524a273.285 273.285 0 0 0 12.137-14.11c1.859-2.3 3.734-4.577 5.633-6.844 9.018-10.79 17.528-21.903 25.855-33.234.571-.775 1.143-1.55 1.731-2.35A701.902 701.902 0 0 0 1096 165l1.453-2.573C1112.75 135.214 1126.175 107.014 1135 77h2c18.26 45.192 30.782 92.02 32 141l.066 2.626c.728 34.676-2.713 69.896-12.066 103.374l-.839 3.003c-4.674 16.438-10.47 32.278-17.161 47.997l-1.177 2.775A285.85 285.85 0 0 1 1121 411c22.027-7.411 42.47-24.15 59.383-39.629a333.391 333.391 0 0 1 6.355-5.59c4.636-4.048 8.985-8.357 13.324-12.719l2.315-2.302A261.829 261.829 0 0 0 1216 336c.95-1.083 1.9-2.165 2.852-3.246 7.8-8.943 15.066-18.234 22.148-27.754l1.597-2.14C1268.42 268.13 1290.794 230.187 1307 190c3.755 1.252 4.003 2.272 5.855 5.68l1.625 2.975 1.707 3.22 1.763 3.3c4.949 9.397 9.325 18.882 13.05 28.825l.928 2.453c7.002 18.812 12.264 39.413 12.205 59.59l.003 2.217c0 1.531-.001 3.063-.006 4.595-.005 2.337 0 4.674.007 7.01 0 1.497-.002 2.994-.004 4.49l.006 2.1c-.018 3.64-.278 7.004-1.139 10.545l2.006.524c54.055 14.399 106.649 40.558 154.52 69.019 3.11 1.831 6.256 3.582 9.411 5.332 25.05 14.275 48.866 31.038 72.063 48.125l2.084 1.534c9.83 7.255 19.431 14.767 28.916 22.466l2.926 2.367c9.8 7.971 19.46 16.092 28.812 24.586A430.197 430.197 0 0 0 1650 506.5c15.404 13.452 30.151 27.557 44.625 42l1.705 1.697c5.544 5.524 11.033 11.05 16.118 17.006 2.705 3.132 5.58 6.106 8.427 9.11 4.996 5.303 9.741 10.697 14.258 16.417 1.837 2.33 1.837 2.33 4.11 4.383C1741 599 1741 599 1741 602c-22.278 4.004-44.645 7.014-67.096 9.858-6.488.825-12.968 1.687-19.447 2.576-26.938 3.673-53.936 6.63-80.975 9.433-19.372 2.007-38.704 4.195-58.02 6.687-3.129.403-6.259.8-9.389 1.195-89.874 11.345-182.81 26.677-268.111 70.235a568.197 568.197 0 0 1-6.314 3.203c-18.65 9.466-36.441 20.528-52.897 33.447a323.954 323.954 0 0 1-5.228 3.98c-6.216 4.665-12.108 9.562-17.793 14.866a244.737 244.737 0 0 1-6.433 5.711c-12.062 10.52-23.557 22.1-33.297 34.809a751.13 751.13 0 0 1-2.77 3.395c-50.633 61.878-78.2 138.122-94.23 215.605h-2l-.531-2.433C1007.79 975.028 997.049 936.253 981 899l-1.275-2.962c-22.992-52.853-57.433-106.304-103.44-142.249-2.078-1.627-4.023-3.325-5.972-5.101C813.43 698.538 737.411 672.641 665 655l-2.343-.573c-36.132-8.804-72.905-14.625-109.752-19.504-5.06-.672-10.117-1.366-15.173-2.076-22.06-3.08-44.155-5.624-66.302-7.983-50.752-5.414-101.548-10.96-151.993-18.802l-2.809-.435a1524.56 1524.56 0 0 1-7.632-1.217l-2.18-.346c-4.395-.729-8.562-1.771-12.816-3.064l1.121-1.305c2.533-2.95 5.06-5.904 7.563-8.879 9.66-11.441 19.789-22.475 30.49-32.955 1.78-1.814 3.424-3.692 5.068-5.63 3.557-4.09 7.386-7.764 11.383-11.418 5.233-4.838 10.369-9.741 15.375-14.813 3.829-3.87 7.703-7.614 11.855-11.137 2.307-2.004 4.538-4.076 6.77-6.162a294.16 294.16 0 0 1 16.695-14.49c2.813-2.32 5.498-4.742 8.18-7.211 5.33-4.894 10.867-9.462 16.5-14 1.265-1.033 2.53-2.067 3.793-3.102 7.665-6.27 15.388-12.435 23.273-18.425 2.264-1.725 4.521-3.458 6.778-5.192 10.528-8.073 21.153-15.98 31.946-23.696a1300.93 1300.93 0 0 0 6.769-4.894l2.317-1.682c1.412-1.026 2.824-2.053 4.234-3.082 14.349-10.4 29.142-20.2 43.827-30.115l2.86-1.93c13.791-9.304 27.658-18.45 41.734-27.32 3.738-2.365 7.448-4.775 11.157-7.187 15.09-9.787 30.297-19.386 45.556-28.907 13.792-8.606 27.524-17.305 41.231-26.046 4.254-2.711 8.51-5.415 12.782-8.099a1834.446 1834.446 0 0 0 33.556-21.635c.822-.543 1.645-1.085 2.493-1.643 33.12-21.827 66.098-44.219 96.237-70.09a733.47 733.47 0 0 1 6.669-5.646c7.985-6.711 15.538-13.744 22.885-21.146 1.725-1.736 3.461-3.46 5.198-5.184 6.69-6.682 12.878-13.521 18.705-20.979l1.468-1.832C906.376 115.293 918.655 93.67 928 70Z" fill="#C33A6E"/><path d="M212 823c4.223 1.436 7.163 3.522 10.625 6.313 22.71 17.921 47.884 32.88 73.08 46.995 4.381 2.458 8.723 4.944 12.994 7.587 6.193 3.742 12.686 6.861 19.173 10.052 3.482 1.723 6.942 3.486 10.405 5.244a1292.08 1292.08 0 0 0 58.586 27.858 3677.5 3677.5 0 0 1 6.592 2.943 4627.395 4627.395 0 0 0 74.46 32.52c25.605 10.929 51.154 21.95 76.491 33.49 5.622 2.56 11.255 5.096 16.89 7.627 33.49 15.054 66.815 30.93 98.895 48.808 3.014 1.677 6.036 3.339 9.059 5 12.133 6.698 23.989 13.68 35.627 21.203 2.649 1.697 5.328 3.342 8.009 4.987 25.011 15.389 48.847 32.798 71.677 51.248l2.059 1.66c3.296 2.681 6.447 5.377 9.378 8.465l-2.563.297c-12.455 1.642-19.78 5.434-28.437 14.703-6.302 8.668-8.244 18.42-7 29 2.992 11.107 7.811 19.732 17.742 25.746 9.358 5.197 19.677 5.668 30.149 3.715 4.553-1.41 8.287-3.595 12.109-6.461l2.5-1.688c9.624-8.901 11.882-19.71 12.5-32.312 2.36 1.97 4.686 3.976 7 6l1.836 1.559c1.664 1.504 1.664 1.504 4.164 4.441.07 3.655-1.298 5.573-3.668 8.164a227.196 227.196 0 0 1-3.52 3.461l-1.909 1.863c-33.12 31.798-75.012 46.628-120.544 45.971-42.409-.977-81.852-21.552-111.242-51.37-1.793-1.97-3.46-4.001-5.117-6.089l-1.295-1.61c-13.635-17.077-23.761-35.756-29.893-56.765l-.721-2.464c-3.703-13.278-5.564-25.9-5.372-39.662.031-2.262.04-4.523.047-6.784.044-8.28.377-16.472 1.234-24.715-36.113-13.047-72.43-25.302-109-37a546.529 546.529 0 0 0-1.185 36.259 1288.4 1288.4 0 0 1-.04 8.02A258.67 258.67 0 0 0 466 1102l.443 3.381c2.052 14.53 5.296 28.586 9.557 42.619l.71 2.365c12.243 40.2 33.762 77.21 62.063 108.186a264.497 264.497 0 0 1 4.266 4.804A206.485 206.485 0 0 0 575 1293l1.884 1.416c40.317 30.165 85.236 49.475 134.866 57.897l2.845.483c13.466 2.156 26.925 2.442 40.53 2.454l2.655.004c19.357-.006 38.519-1.248 57.4-5.8 3.183-.512 4.836-.718 7.82.546a64.872 64.872 0 0 1 4.938 7.188l2.921 4.699 1.55 2.529c2.706 4.395 5.5 8.735 8.279 13.084l3.582 5.637a6750.616 6750.616 0 0 0 13.623 21.327L864 1414a13670.052 13670.052 0 0 1 24.716 38.699c6.388 10.044 12.81 20.068 19.23 30.093 2.08 3.25 4.16 6.5 6.238 9.751 5.834 9.125 11.669 18.248 17.566 27.332 4.315 6.647 8.553 13.34 12.775 20.047a1344.644 1344.644 0 0 0 9.85 15.39c4.738 7.297 9.416 14.63 14.082 21.972 4.5 7.082 9.018 14.151 13.543 21.216 5.213 8.143 10.425 16.286 15.625 24.438l1.684 2.632A645.103 645.103 0 0 1 1010 1643c-3.073-1.332-4.769-2.621-6.742-5.316l-1.52-2.04-1.613-2.207c-4.624-6.193-9.364-12.25-14.313-18.187a528.596 528.596 0 0 1-14.261-17.95c-3.969-5.176-8.13-10.2-12.254-15.253-9.816-12.031-19.415-24.236-28.973-36.473a1064.406 1064.406 0 0 0-14.699-18.387c-5.123-6.262-10.061-12.646-14.947-19.094a350.336 350.336 0 0 0-12.264-15.187c-4.508-5.427-8.762-11.054-13.055-16.652l-1.804-2.346c-1.222-1.588-2.441-3.18-3.657-4.773l-1.789-2.319-1.594-2.08c-1.59-1.976-1.59-1.976-4.515-3.736-2.946.711-5.7 1.534-8.563 2.5-20.72 6.57-41.898 10.722-63.437 13.5l-2.666.36c-46.864 6.069-97.12 1.495-142.776-9.924l-2.507-.616-2.167-.554c-2.105-.44-2.105-.44-4.884.734a73.592 73.592 0 0 0-2.82 7.172l-.788 2.244a941.348 941.348 0 0 0-2.517 7.334l-1.761 5.114A2028.61 2028.61 0 0 0 622 1504l-.69 2.054c-10.798 32.224-18.895 65.357-24.001 98.954-.3 1.94-.621 3.875-.942 5.811-3.084 18.82-3.733 37.321-3.742 56.369l-.006 3.388c.004 22.195 1.587 43.731 6.381 65.424l.625 2.867c8.788 39.602 26.858 75.938 51.375 108.133l1.477 1.953c5.377 7.08 10.972 13.846 17.039 20.352a242.211 242.211 0 0 1 5.66 6.386c4.368 5.01 9.053 9.684 13.761 14.371l2.592 2.604c4.995 4.987 10.094 9.764 15.471 14.334l3.168 2.738c29.055 24.77 61.148 46.31 94.832 64.262l3.056 1.63c15.08 8.004 30.272 15.591 45.944 22.37l2.876 1.249c22.536 9.728 45.512 18.035 69.124 24.751l2.753.784c25.021 7.03 50.376 11.776 76.247 14.216v1c-11.207.141-22.268-.164-33.438-1.125l-2.28-.192c-66.208-5.67-130.652-21.374-193.333-43.011-1.801-.621-3.604-1.238-5.406-1.854-48.73-16.727-96.544-38.597-141.112-64.42a544.647 544.647 0 0 0-8.532-4.783c-17.802-9.863-34.855-20.793-51.712-32.178l-2.33-1.57c-19.554-13.208-38.576-27.03-56.84-41.978a509.24 509.24 0 0 0-11.461-9.107c-6.37-4.913-12.313-10.108-18.13-15.665-2.769-2.594-5.69-4.951-8.653-7.32-5.883-4.774-11.172-10.005-16.46-15.422-5.376-5.48-10.71-10.9-16.596-15.836-2.513-2.253-4.625-4.8-6.803-7.371-2.206-2.499-4.54-4.827-6.914-7.168-4.217-4.179-8.148-8.487-12-13-.977-1.126-1.955-2.25-2.934-3.375-2.819-3.239-5.63-6.485-8.435-9.736-1.032-1.196-2.066-2.39-3.102-3.582-6.559-7.555-12.673-15.359-18.623-23.4a412.859 412.859 0 0 0-6.743-8.839c-5.52-7.061-10.627-14.369-15.634-21.8-1.06-1.571-2.122-3.14-3.187-4.707-15.132-22.273-29.287-45.452-41.342-69.561l-6 23h-2a8587.48 8587.48 0 0 1-5.542-13.373 3397.41 3397.41 0 0 0-1.873-4.516c-5.102-12.281-9.906-24.663-14.585-37.111l-.427 3.937a188534.145 188534.145 0 0 1-2.286 21.052c-1.411 13.006-2.834 26.01-4.287 39.011-56.282-55.725-88.465-149.396-135.78-377.65a1072.17 1072.17 0 0 0-.678-6.94c-5.245-53.208-5.142-108.947.23-162.137.23-2.301.45-4.603.666-6.906C148.013 1011.456 166.424 932.19 212 823Z" fill="#613067"/><path d="M865.203 1461.84c1.42 1.472 1.42 1.472 2.797 3.16l1.424 1.731c1.494 1.91 2.914 3.86 4.326 5.832a322.4 322.4 0 0 0 14.023 17.785c2.527 3.01 4.943 6.09 7.34 9.203a1096.306 1096.306 0 0 0 19.45 24.512c4.725 5.786 9.314 11.652 13.843 17.593 3.497 4.546 7.149 8.966 10.78 13.405a458.97 458.97 0 0 1 9.751 12.377c3.904 5.122 7.95 10.105 12.063 15.062a546.012 546.012 0 0 1 14.441 18.191c2.94 3.835 6 7.57 9.059 11.309 6.337 7.75 12.442 15.655 18.496 23.629 2.452 3.2 4.837 6.204 7.692 9.059C1017 1651 1017 1651 1017 1655h2l.688-2.188c1.29-2.763 2.682-4.186 4.834-6.275 2.974-3.093 5.498-6.57 8.103-9.975l3.754-4.863 1.864-2.42c2.426-3.146 4.867-6.279 7.32-9.404l1.32-1.683c4.057-5.151 8.206-10.226 12.354-15.304a470.616 470.616 0 0 0 9.7-12.325c3.904-5.123 7.95-10.106 12.063-15.063a554.767 554.767 0 0 0 14.512-18.262c3.248-4.252 6.608-8.414 9.96-12.584 3.351-4.175 6.669-8.373 9.966-12.591a970.518 970.518 0 0 1 12.312-15.376c3.874-4.75 7.72-9.514 11.46-14.37 2.797-3.62 5.628-7.212 8.458-10.805 2.4-3.049 4.793-6.103 7.168-9.172 4.241-5.472 8.527-10.9 13.039-16.152l2.055-2.395c2.47-2.139 3.85-2.42 7.07-2.793 2.39.45 2.39.45 4.895 1.258l2.855.89 3.063.977c33.07 10.037 67.441 14.103 101.937 14.125l2.928.002c35.052-.039 69.388-4.413 103.438-12.872 1.884-.38 1.884-.38 4.884-.38 17.114 45.592 31.078 91.751 38.67 139.93.316 1.98.646 3.96.976 5.938 5.791 35.378 6.284 73.737.354 109.132l-.34 2.23c-.706 4.633-1.625 9.2-2.66 13.77l-.573 2.608c-8.841 39.714-26.83 76.091-51.427 108.392l-1.477 1.953c-5.377 7.08-10.972 13.846-17.039 20.352a237.04 237.04 0 0 0-5.629 6.355c-4.531 5.198-9.408 10.039-14.293 14.902l-2.736 2.749c-5.113 5.105-10.317 10.015-15.826 14.689l-3.168 2.738c-29.055 24.77-61.148 46.31-94.832 64.262l-3.056 1.63c-15.08 8.004-30.272 15.591-45.944 22.37l-2.876 1.249c-22.536 9.728-45.512 18.035-69.124 24.751l-2.753.784c-75.391 21.18-144.802 14.457-217.455-12.746a646.092 646.092 0 0 0-8.12-2.94c-6.764-2.458-13.41-5.194-20.047-7.973l-2.023-.847C821.518 1985.273 784.89 1965.675 751 1942l-2.105-1.47c-11.011-7.732-21.567-15.91-31.895-24.53l-1.745-1.445c-17.938-14.855-36.117-30.832-50.439-49.246-1.76-2.237-3.623-4.293-5.566-6.371-6.4-7.126-11.755-15.112-17.25-22.938l-1.353-1.898c-23.953-33.711-39.332-73.395-45.96-114.102l-.483-2.962c-5.432-35.755-4.1-74.449 1.796-110.038.208-1.34.413-2.681.617-4.022 5.346-35.034 14.43-69.252 25.666-102.834.487-1.457.973-2.915 1.458-4.374 1.47-4.426 2.96-8.845 4.481-13.254.473-1.373.94-2.747 1.405-4.122.64-1.888 1.3-3.768 1.963-5.648.37-1.065.74-2.13 1.12-3.229 1.29-2.517 1.29-2.517 3.027-3.95 3.262-.817 5.623-.14 8.888.628l1.972.447c1.403.318 2.806.642 4.207.97 3.733.871 7.477 1.688 11.223 2.501l2.299.5c11.462 2.452 23.04 4.008 34.674 5.387l2.828.355c48.517 5.906 98.364.926 145.371-11.707l3.002-.805c2.657-.8 5.133-1.806 7.694-2.866 3.595-1.216 3.762-1.174 7.308.863Z" fill="#6F24AC"/><path d="M1955 570c1.174 3.522.767 4.55-.3 8.031l-.947 3.104-1.065 3.365-1.101 3.508c-18.332 57.552-46.326 111.643-87.251 156.41a211.594 211.594 0 0 0-3.8 4.291c-5.055 5.893-10.474 11.377-15.974 16.854l-2.736 2.748c-5.114 5.106-10.327 10.002-15.826 14.689-1.095.96-2.189 1.923-3.281 2.887-7.96 6.953-16.207 13.403-24.73 19.652a944.323 944.323 0 0 0-5.81 4.309c-8.535 6.35-17.251 12.366-26.179 18.152l-2.09 1.361c-42.392 27.515-87.892 50.32-134 70.891a2129.546 2129.546 0 0 0-11.195 5.045c-13.486 6.101-27.04 12.02-40.655 17.824-12.223 5.211-24.4 10.521-36.56 15.879a3519.413 3519.413 0 0 1-38.75 16.813c-35.45 15.126-70.377 31.372-104.988 48.324-1.603.785-3.207 1.569-4.81 2.352-12.167 5.953-24.092 12.29-35.942 18.85-3.18 1.755-6.37 3.494-9.56 5.231-14.241 7.79-28.085 16.037-41.778 24.749-3.162 1.99-6.362 3.91-9.57 5.824-29.696 17.762-57.907 39.29-84.224 61.731a389.353 389.353 0 0 1-10.128 8.313c-6.553 5.326-12.6 11.183-18.715 17a339.442 339.442 0 0 1-9.66 8.813c-3.533 3.143-6.685 6.442-9.707 10.078-2.11 2.431-4.375 4.662-6.668 6.922-6.898 6.814-13.746 13.58-20 21l-4.044 4.677c-11.993 13.908-23.48 28.066-34.24 42.954-1.69 2.333-3.392 4.655-5.099 6.974-7.257 9.9-14.087 20.002-20.617 30.395l-1.546 2.449c-19.772 31.362-36.488 64.131-52.454 97.551h-2l-1.338-2.784C990.208 1324.313 962.035 1274.517 926 1228l-1.583-2.055c-9.205-11.954-18.974-23.37-29.175-34.484a325.82 325.82 0 0 1-5.93-6.711c-2.783-3.21-5.732-6.195-8.765-9.168C879 1174 879 1174 877.062 1171.5c-1.789-2.168-3.476-3.769-5.609-5.57-4.841-4.193-9.285-8.734-13.765-13.305-5.831-5.893-11.62-11.507-18.165-16.602-2.909-2.332-5.619-4.848-8.336-7.398-5.835-5.44-12.03-10.32-18.344-15.19-2.56-1.994-5.083-4.032-7.608-6.07A414.18 414.18 0 0 0 785 1092c-1.042-.755-2.083-1.51-3.156-2.29-8.744-6.33-17.689-12.33-26.694-18.281a609.606 609.606 0 0 1-5.822-3.921c-10.32-7.01-20.964-13.463-31.65-19.895-2.37-1.427-4.736-2.86-7.1-4.297-6.126-3.713-12.289-7.32-18.605-10.703a436.142 436.142 0 0 1-7.102-3.945l-2.188-1.24c-1.431-.813-2.861-1.628-4.29-2.446-2.774-1.573-5.36-2.97-8.393-3.982v-2l-1.661-.496c-5.737-1.8-10.84-4.157-16.089-7.067-6.463-3.558-6.463-3.558-13.25-6.437v-2l-2.504-.262c-4.24-.895-7.613-2.559-11.433-4.55l-2.053-1.042a187.963 187.963 0 0 1-9.576-5.22c-2.785-1.562-5.528-2.84-8.462-4.077-3.584-1.543-7.107-3.22-10.64-4.876a16401.2 16401.2 0 0 0-5.097-2.38l-2.677-1.25c-15.322-7.145-30.69-14.09-46.265-20.667-10.443-4.42-20.83-8.97-31.23-13.489a231708.648 231708.648 0 0 0-17.334-7.529c-8.41-3.653-16.823-7.3-25.237-10.943l-10.634-4.608-6.726-2.912C435.37 913.24 421.652 907.204 408 901l-3.525-1.6c-68.412-31.182-68.412-31.182-99.772-50.375-2.758-1.66-5.579-3.208-8.39-4.775C273.457 831.224 251.681 816.231 231 800l-2.79-2.172c-21.32-16.807-43.585-35.626-60.128-57.21-1.883-2.368-3.845-4.596-5.871-6.84-4.045-4.526-7.77-9.227-11.399-14.09-.642-.862-1.285-1.723-1.948-2.61C137.794 702.092 128.03 686.287 119 670l-1.35-2.422C101.04 637.55 88.818 605.123 80 572c3.48 1.621 5.172 3.167 7.5 6.25 8.034 10.3 16.514 19.942 25.75 29.188l2.255 2.257A260.583 260.583 0 0 0 130 623l1.93 1.647c15.818 13.405 32.492 25.37 50.07 36.353l1.812 1.138c16.425 10.26 33.653 19.384 51.073 27.831 2.32 1.131 4.63 2.283 6.94 3.433 72.073 35.551 150.703 57.66 227.345 80.9 26.355 7.992 52.648 16.152 78.83 24.698l2.472.807C604.84 817.568 658.462 837.077 710 862l2.092 1.011c19.11 9.254 37.754 18.953 55.908 29.989a6455.9 6455.9 0 0 0 4.941 2.96A547.974 547.974 0 0 1 801 914l2.074 1.426c9.388 6.48 18.517 13.211 27.41 20.357 1.377 1.105 2.762 2.2 4.149 3.295 10.64 8.416 20.88 17.247 30.814 26.482 1.644 1.524 3.295 3.04 4.948 4.553 7.498 6.875 14.821 13.743 21.46 21.461 2.243 2.537 4.547 5.005 6.865 7.472 5.736 6.109 11.161 12.313 16.28 18.954 1.058 1.34 2.116 2.68 3.176 4.02 23.828 30.216 43.585 62.592 60.824 96.98l1.41 2.808c10.134 20.332 18.385 41.422 25.965 62.817l.749 2.105c2.768 7.812 5.362 15.662 7.728 23.606l.657 2.19c.854 2.926 1.491 5.407 1.491 8.474h2l.656-3.934c1.59-7.91 4.271-15.497 6.844-23.129l.806-2.406A590.401 590.401 0 0 1 1043 1150l2.34-5.633c4.134-9.874 8.535-19.55 13.466-29.052 1.38-2.676 2.736-5.365 4.092-8.053 21.422-42.166 48.89-81.293 81.507-115.566 1.465-1.558 2.9-3.137 4.322-4.735 7.915-8.872 16.538-16.906 25.273-24.961 1.05-.975 2.1-1.95 3.148-2.926 6.09-5.61 12.38-10.91 18.852-16.074l1.54-1.236c35.505-28.456 73.979-52.088 114.46-72.764l2.885-1.484c74.248-38.123 154.594-63.52 268.573-98.492 122.44-36.621 122.44-36.621 246.229-93.719 2.158-1.218 4.33-2.41 6.508-3.59 39.951-21.78 80.929-52.445 108.805-88.715l2.766-3.566c2.424-3.135 4.833-6.281 7.234-9.434Z" fill="#F8A122"/><path d="M1824 823c8.887 19.088 17.196 38.227 24.305 58.062.716 1.995 1.435 3.989 2.155 5.982 23.2 64.492 37.77 131.872 44.727 200.019l.24 2.3c3.002 29.25 3.953 58.44 3.89 87.824-.005 2.67-.007 5.34-.009 8.01-.031 25.928-.5 51.705-3.083 77.524a856.083 856.083 0 0 0-.647 6.897c-7.439 81.797-25.527 163.985-118.578 354.382-.59.821-1.178 1.643-1.785 2.49a1633.222 1633.222 0 0 1-5.715 7.885l-1.818 2.509-1.713 2.327-1.518 2.072C1763 1643 1763 1643 1760 1645a13286.049 13286.049 0 0 1-4.625-42.125A336611.05 336611.05 0 0 0 1753 1581l-1.158 3.003c-13.994 36.26-13.994 36.26-20.842 51.997h-2a674.691 674.691 0 0 1-3.188-11.438c-.31-1.069-.622-2.138-.943-3.24-1.908-7.172-2.131-11.642 1.131-18.322l1.096-2.383c1.244-2.641 2.54-5.253 3.841-7.867 13.028-26.903 22.553-54.481 31.492-82.952.51-1.604 1.039-3.201 1.571-4.798.241-5.486-.267-10.066-1.617-15.426l-.522-2.097a956.672 956.672 0 0 0-1.736-6.79l-1.227-4.818c-18.171-70.899-42.47-140.485-71.04-207.841-.872-2.06-1.74-4.123-2.608-6.186-17.15-40.745-35.689-80.8-55.489-120.323a1624.422 1624.422 0 0 1-5.308-10.683c-4.197-8.516-8.53-16.94-13.078-25.274l-1.476-2.732c-2.556-4.697-5.18-9.329-7.97-13.89-9.973-16.345-15.161-29.885-17.364-49.18-.624-4.151-1.57-8.131-2.623-12.19l-.565-2.219c-.456-1.784-.916-3.568-1.377-5.351-11.025 3.53-22.045 7.073-33.063 10.625l-2.455.791c-21.444 6.915-42.827 13.922-63.951 21.772l-2.175.805c-1.857.69-3.71 1.388-5.562 2.087-2.794.92-2.794.92-5.794.92l1.355 3.418c7.98 20.584 13.696 42.344 12.645 64.582l-.108 2.42c-2.152 42.81-20.45 83.905-52.455 112.955A248.124 248.124 0 0 1 1424 1244l-1.62 1.304c-33.825 27.004-77.03 40.742-120.349 36.231-37.135-4.589-69.163-20.916-96.031-46.535l-2.398-2.238c-8.582-8.236-15.496-17.634-21.665-27.762l-1.158-1.887c-1.983-3.355-3.54-6.201-3.779-10.113 1.504-2.2 1.504-2.2 3.777-4.398l2.498-2.454 2.662-2.523 2.557-2.5a313.908 313.908 0 0 1 13.623-12.476c3.146-2.755 6.16-5.648 9.196-8.524 5.165-4.857 10.42-9.504 15.964-13.93 2.475-1.995 4.892-4.046 7.3-6.122 7.23-6.22 14.777-11.94 22.45-17.6a300.622 300.622 0 0 0 5.387-4.125C1289.48 1097.33 1319.294 1079 1349 1062l2.622-1.508c25.998-14.91 52.753-28.924 79.94-41.554l2.146-1.004 4.294-2.003c1.808-.842 3.614-1.687 5.42-2.533 2.378-1.112 4.756-2.221 7.137-3.328a2314.45 2314.45 0 0 0 10.164-4.765c31.054-14.582 62.604-28.05 94.145-41.537A6367.983 6367.983 0 0 0 1612 939l1.967-.864A2199.398 2199.398 0 0 0 1694 901l3.048-1.48c13.304-6.473 26.218-13.485 39.043-20.858a923.428 923.428 0 0 1 8.804-4.955c12.294-6.855 24.309-14.025 36.105-21.707l3.246-2.105c12.153-7.998 24.036-16.43 35.531-25.348C1822 823 1822 823 1824 823Z" fill="#622210"/><path d="M212 823c4.223 1.436 7.163 3.522 10.625 6.313 22.71 17.921 47.884 32.88 73.08 46.995 4.381 2.458 8.723 4.944 12.994 7.587 6.193 3.742 12.686 6.861 19.173 10.052 3.482 1.723 6.942 3.486 10.405 5.244a1292.08 1292.08 0 0 0 58.586 27.858 3677.5 3677.5 0 0 1 6.592 2.943 4627.395 4627.395 0 0 0 74.46 32.52c25.605 10.929 51.154 21.95 76.491 33.49 5.622 2.56 11.255 5.096 16.89 7.627 33.49 15.054 66.815 30.93 98.895 48.808 3.014 1.677 6.036 3.339 9.059 5 12.133 6.698 23.989 13.68 35.627 21.203 2.649 1.697 5.328 3.342 8.009 4.987 25.011 15.389 48.847 32.798 71.677 51.248l2.059 1.66c3.296 2.681 6.447 5.377 9.378 8.465l-2.563.297c-12.455 1.642-19.78 5.434-28.437 14.703-6.302 8.668-8.244 18.42-7 29 2.992 11.107 7.811 19.732 17.742 25.746 9.358 5.197 19.677 5.668 30.149 3.715 4.553-1.41 8.287-3.595 12.109-6.461l2.5-1.688c9.624-8.901 11.882-19.71 12.5-32.312 2.36 1.97 4.686 3.976 7 6l1.836 1.559c1.664 1.504 1.664 1.504 4.164 4.441.07 3.655-1.298 5.573-3.668 8.164a227.196 227.196 0 0 1-3.52 3.461l-1.909 1.863c-33.12 31.798-75.012 46.628-120.544 45.971-42.409-.977-81.852-21.552-111.242-51.37-1.793-1.97-3.46-4.001-5.117-6.089l-1.295-1.61c-13.635-17.077-23.761-35.756-29.893-56.765l-.721-2.464c-3.703-13.278-5.564-25.9-5.372-39.662.031-2.262.04-4.523.047-6.784.044-8.28.377-16.472 1.234-24.715-36.113-13.047-72.43-25.302-109-37l-.198 3.097c-.134 2.076-.27 4.151-.414 6.226-.301 4.903-.394 9.755-.272 14.667.477 19.696-1.094 33.402-12.332 50.264-2.933 4.515-5.433 9.253-7.971 13.996l-1.497 2.739c-3.728 6.826-7.245 13.744-10.684 20.719a416.227 416.227 0 0 1-7.021 13.615c-26.542 49.255-47.846 101.901-67.846 154.082a2215.141 2215.141 0 0 1-4.788 12.353c-6.765 17.434-12.753 35.088-18.547 52.862-1.13 3.468-2.273 6.933-3.42 10.397-10.02 30.289-18.654 60.938-26.01 91.983l-.596 2.514c-4.743 20.04-9.338 40.098-13.029 60.361l-.383 2.087c-2.42 12.144-2.42 12.144.176 23.983l1.441 3.472.78 1.83c.812 1.909 1.605 3.826 2.396 5.744 2.768 6.645 5.717 13.13 9.047 19.513 10.767 20.837 10.767 20.837 8.106 30.746a72.809 72.809 0 0 1-2.188 5.854c-1.27 3.212-1.97 6.536-2.75 9.896h-2a8587.48 8587.48 0 0 1-5.542-13.373 3397.41 3397.41 0 0 0-1.873-4.516c-5.102-12.281-9.906-24.663-14.585-37.111l-.427 3.937a188534.145 188534.145 0 0 1-2.286 21.052c-1.411 13.006-2.834 26.01-4.287 39.011-56.282-55.725-88.465-149.396-135.78-377.65a1072.17 1072.17 0 0 0-.678-6.94c-5.245-53.208-5.142-108.947.23-162.137.23-2.301.45-4.603.666-6.906C148.013 1011.456 166.424 932.19 212 823Z" fill="#953615"/><path d="M1580 1019c2.85 4.274 3.41 8.7 4.438 13.688l.619 2.818c3.925 18.821 5.447 37.683 5.334 56.886-.016 3.24 0 6.478.02 9.717.076 77.283-34.92 149.43-88.411 203.891-16.835 16.722-36.478 31.149-57 43l-2.265 1.327c-25.626 14.903-53.255 25.287-82.11 31.923l-3.035.71c-20.306 4.438-40.672 5.59-61.402 5.477l-3.584-.008c-17.237-.06-33.726-.712-50.604-4.429-1.937-.39-3.875-.78-5.813-1.168-10.756-2.237-21.188-5.229-31.609-8.695-3.27-1.238-3.27-1.238-5.578-1.137a110.968 110.968 0 0 0-4.125 6.438c-.905 1.48-1.811 2.959-2.719 4.437l-1.52 2.48c-3.03 4.897-6.15 9.737-9.261 14.582a748469.714 748469.714 0 0 0-6.27 9.78c-3.412 5.322-6.822 10.646-10.23 15.97l-2.014 3.147A8146.441 8146.441 0 0 0 1150 1450c-8.317 13.081-16.68 26.133-25.041 39.187-7 10.929-13.995 21.86-20.959 32.813-10.22 16.068-20.447 32.129-30.875 48.063-4.482 6.85-8.908 13.725-13.222 20.682-5.817 9.368-11.805 18.628-17.758 27.91-2.91 4.539-5.82 9.078-8.727 13.619-1.367 2.135-2.734 4.27-4.102 6.403l-1.89 2.952-1.779 2.77c-1.53 2.418-3.006 4.863-4.479 7.316L1019 1655h-2a168.89 168.89 0 0 1-5.125-7.938 5755.172 5755.172 0 0 0-3.266-5.257l-1.767-2.853c-3.193-5.118-6.458-10.189-9.717-15.264A7482.752 7482.752 0 0 1 982 1600c-9.962-15.668-19.95-31.319-30.06-46.892-3.872-5.978-7.67-12.002-11.465-18.03a1344.644 1344.644 0 0 0-9.85-15.39 2297.274 2297.274 0 0 1-12.313-19.188 8161.776 8161.776 0 0 0-15.187-23.813l-2.018-3.151L895 1464a13670.052 13670.052 0 0 1-24.716-38.699c-6.388-10.044-12.81-20.068-19.23-30.093-2.08-3.25-4.16-6.5-6.238-9.751A6049.97 6049.97 0 0 0 822 1350a243.372 243.372 0 0 0-19.371 2.807c-15.46 2.707-30.897 3.546-46.567 3.443l-2.66-.011c-12.56-.063-24.984-.17-37.402-2.239l-3.395-.555c-18.321-3.079-36.022-7.36-53.605-13.445l-2.459-.846C603.571 1320.569 555.54 1284.96 522 1240l-1.231-1.633c-37.595-50.085-57.96-110.768-57.954-173.303-.002-2.73-.02-5.458-.04-8.187A245.121 245.121 0 0 1 465 1023a188.033 188.033 0 0 1 18.578 4.914l2.755.87c2.974.94 5.946 1.89 8.917 2.841l3.093.987a1544.589 1544.589 0 0 1 47.532 16.075l2.895 1.028c2.722.969 5.441 1.944 8.16 2.922l2.39.853c5.338 1.937 10.518 4.143 15.68 6.51l-.208 2.027c-2.014 21.496-2.659 44.061 3.208 64.973.379 1.471.756 2.942 1.133 4.414 10.942 41.169 38.853 74.875 75.17 96.444 6.967 4 14.226 7.211 21.697 10.142l3.465 1.367c39.944 14.468 84.968 11.897 123.347-6.054 19.91-9.708 41.068-24.116 54.188-42.313l1.95 2.133a32017.734 32017.734 0 0 0 4.221 4.615 920.888 920.888 0 0 0 8.138 8.78c5.711 6.081 11.254 12.205 16.468 18.726 1.97 2.435 3.997 4.808 6.05 7.173 6.996 8.092 13.265 16.678 19.539 25.335a372.896 372.896 0 0 0 4.302 5.77c19.35 25.572 35.767 53.47 50.857 81.71.975 1.823 1.954 3.643 2.938 5.461 15.382 28.432 27.76 58.228 39.537 88.297l.885 2.252c.86 2.196 1.708 4.395 2.553 6.596l.785 2.006c1.259 3.319 1.777 5.53 1.777 9.146h2l.358-2.592c.66-3.506 1.668-6.596 2.908-9.94l.694-1.877c.756-2.033 1.522-4.062 2.29-6.091l.807-2.14c24.847-65.722 58.124-128.54 100.943-184.36l1.478-1.933c5.766-7.514 11.767-14.805 17.924-22 2.325-2.725 4.557-5.514 6.785-8.317 7.356-9.057 15.536-17.533 23.813-25.75l1.617 3.043c7.266 13.432 15.88 24.838 26.383 35.957l2.105 2.266c26.38 27.485 66.46 44.95 104.48 45.902 46.081.435 87.555-14.609 121.368-46.152 3.24-3.19 6.209-6.463 9.047-10.016l1.32-1.652c13.91-17.558 24.375-36.77 30.68-58.348l.57-1.951c3.543-12.507 4.653-25.11 5.43-38.049l.258-3.477c.752-18.612-4.597-37.546-10.452-55.014-1.012-3.149-1.91-6.326-2.806-9.509 28.82-10.347 57.71-20.357 86.875-29.688A7908.284 7908.284 0 0 1 1580 1019Z" fill="#F9A816"/><path d="m432 469 .516 3.516c3.314 21.733 10.358 39.575 28.183 53.322C476.187 537.155 493.961 544.79 512 551l2.087.73c14.915 5.201 30.02 9.43 45.288 13.457l7.404 1.97c15.55 4.129 31.127 8.14 46.721 12.093 32.583 8.27 64.81 17.015 96.568 28.079 1.82.632 3.641 1.257 5.464 1.881C755.409 622.88 794.672 640.895 830 664l1.818 1.172C846.842 674.862 861.377 685.42 875 697l1.699 1.43c12.257 10.316 12.257 10.316 17.735 16 1.76 1.765 3.612 3.382 5.504 5.008 6.222 5.381 11.874 11.214 17.23 17.453 1.985 2.285 4.032 4.506 6.082 6.734 5.1 5.654 9.758 11.612 14.403 17.639a451.55 451.55 0 0 0 3.777 4.783C968.427 800.214 1017 868.379 1017 914h2l.707-3.688c1.413-6.316 3.677-12.274 5.98-18.312l.712-1.873c19.03-49.83 45.151-97.272 79.601-138.127l1.358-1.615c11.352-13.477 23.002-26.926 36.4-38.42 2.164-1.896 4.267-3.848 6.366-5.815 6.965-6.499 14.288-12.397 21.876-18.15l2.056-1.573c21.456-16.362 44.117-30.776 67.944-43.427l2.894-1.54c61.228-32.294 128.92-50.637 195.771-67.118 13.598-3.355 27.133-6.915 40.648-10.592l2.741-.742c62.629-15.801 62.629-15.801 109.282-56.988 6.724-12.202 9.092-23.313 10.664-37.02 7.905 3.85 14.409 10.138 21.063 15.815a440.687 440.687 0 0 0 10.374 8.56c5.683 4.62 10.994 9.6 16.329 14.61a241.507 241.507 0 0 0 7.671 6.89c3.057 2.635 5.89 5.43 8.715 8.31 1.665 1.635 3.37 3.132 5.157 4.631 6.047 5.26 11.645 10.99 17.3 16.663a2753.45 2753.45 0 0 0 5.858 5.851c5.515 5.512 11.002 10.998 16.053 16.945 2.673 3.116 5.532 6.06 8.355 9.038 4.996 5.303 9.741 10.697 14.258 16.417 1.837 2.33 1.837 2.33 4.11 4.383C1741 599 1741 599 1741 602c-22.278 4.004-44.645 7.014-67.096 9.858-6.488.825-12.968 1.687-19.447 2.576-26.938 3.673-53.936 6.63-80.975 9.433-19.372 2.007-38.704 4.195-58.02 6.687-3.129.403-6.259.8-9.389 1.195-89.874 11.345-182.81 26.677-268.111 70.235a568.197 568.197 0 0 1-6.314 3.203c-18.65 9.466-36.441 20.528-52.897 33.447a323.954 323.954 0 0 1-5.228 3.98c-6.216 4.665-12.108 9.562-17.793 14.866a244.737 244.737 0 0 1-6.433 5.711c-12.062 10.52-23.557 22.1-33.297 34.809a751.13 751.13 0 0 1-2.77 3.395c-50.633 61.878-78.2 138.122-94.23 215.605h-2l-.531-2.433C1007.79 975.028 997.049 936.253 981 899l-1.275-2.962c-22.992-52.853-57.433-106.304-103.44-142.249-2.078-1.627-4.023-3.325-5.972-5.101C813.43 698.538 737.411 672.641 665 655l-2.343-.573c-36.132-8.804-72.905-14.625-109.752-19.504-5.06-.672-10.117-1.366-15.173-2.076-22.06-3.08-44.155-5.624-66.302-7.983-50.752-5.414-101.548-10.96-151.993-18.802l-2.809-.435a1524.56 1524.56 0 0 1-7.632-1.217l-2.18-.346c-4.395-.729-8.562-1.771-12.816-3.064l1.121-1.305c2.533-2.95 5.06-5.904 7.563-8.879 9.66-11.441 19.789-22.475 30.49-32.955 1.78-1.814 3.424-3.692 5.068-5.63 3.557-4.09 7.386-7.764 11.383-11.418 5.233-4.838 10.369-9.741 15.375-14.813 3.829-3.87 7.703-7.614 11.855-11.137 2.307-2.004 4.538-4.076 6.77-6.162a294.16 294.16 0 0 1 16.695-14.49c2.813-2.32 5.498-4.742 8.18-7.211 5.323-4.896 10.856-9.481 16.5-14l2.695-2.258C430 469 430 469 432 469Z" fill="#7E2E5B"/><path d="M155 999c7.682 3.742 15.293 7.573 22.757 11.737 32.843 18.288 67.384 36.64 102.954 49.052 2.625.967 5.025 2.037 7.539 3.242 3.362 1.542 6.315 2.296 9.977 2.774 6.204 1.058 11.394 2.45 15.773 7.195 4.389 10.427 5.13 22.197 6.42 33.344.706 5.935 1.879 11.72 3.267 17.531l.702 2.993c9.963 40.938 24.626 79.902 42.947 117.788l1.358 2.828c1.148 2.212 2.419 4.138 3.845 6.172 1.61 3.687 1.565 3.98.265 7.501l-.874 2.411L371 1266l-.82 2.184a572.957 572.957 0 0 1-2.586 6.644l-.973 2.48a5773.95 5773.95 0 0 1-2.056 5.233c-1.815 4.617-3.62 9.24-5.424 13.861l-2.15 5.504-1.028 2.63-1.812 4.635c-7.545 19.285-14.304 38.766-20.72 58.449-1.132 3.468-2.274 6.933-3.42 10.397-10.021 30.289-18.655 60.938-26.011 91.983l-.596 2.514c-4.743 20.04-9.338 40.098-13.029 60.361l-.383 2.087c-2.42 12.144-2.42 12.144.176 23.983l1.441 3.472.78 1.83c.812 1.909 1.605 3.826 2.396 5.744 2.768 6.645 5.717 13.13 9.047 19.513 10.767 20.837 10.767 20.837 8.106 30.746a72.809 72.809 0 0 1-2.188 5.854c-1.27 3.212-1.97 6.536-2.75 9.896h-2a8587.48 8587.48 0 0 1-5.542-13.373 3397.41 3397.41 0 0 0-1.873-4.516c-5.102-12.281-9.906-24.663-14.585-37.111l-.427 3.937a188534.145 188534.145 0 0 1-2.286 21.052c-1.411 13.006-2.834 26.01-4.287 39.011-56.282-55.725-88.465-149.396-135.78-377.65a1072.17 1072.17 0 0 0-.678-6.94c-5.245-53.208-5.142-108.947.23-162.137.23-2.301.45-4.603.666-6.906 7.396-78.035 7.396-78.035 14.562-92.367ZM1880 999c2.6 2.6 2.655 4.396 3.332 8l.723 3.822c.254 1.393.506 2.785.757 4.178l.395 2.155c4.243 23.193 7.59 46.45 9.98 69.908l.24 2.298c3.002 29.251 3.953 58.442 3.89 87.826-.005 2.67-.007 5.34-.009 8.01-.031 25.928-.5 51.705-3.083 77.524a856.083 856.083 0 0 0-.647 6.897c-7.439 81.797-25.527 163.985-118.578 354.382-.59.821-1.178 1.643-1.785 2.49a1633.222 1633.222 0 0 1-5.715 7.885l-1.818 2.509-1.713 2.327-1.518 2.072C1763 1643 1763 1643 1760 1645a13286.049 13286.049 0 0 1-4.625-42.125A336611.05 336611.05 0 0 0 1753 1581l-1.158 3.003c-13.994 36.26-13.994 36.26-20.842 51.997h-2a674.691 674.691 0 0 1-3.188-11.438c-.31-1.069-.622-2.138-.943-3.24-1.908-7.172-2.131-11.642 1.131-18.322l1.096-2.383c1.244-2.641 2.54-5.253 3.841-7.867 13.028-26.903 22.553-54.481 31.492-82.952.51-1.604 1.039-3.201 1.571-4.798.241-5.486-.267-10.066-1.617-15.426l-.522-2.097a956.672 956.672 0 0 0-1.736-6.79l-1.227-4.818c-16.737-65.3-38.668-129.545-64.355-191.853-.845-2.052-1.68-4.109-2.514-6.166-2.497-6.104-5.099-12.091-8.093-17.97-11.26-22.11-11.26-22.11-8.905-30.907 1.929-4.945 4.568-9.425 7.297-13.965 3.041-5.471 5.083-11.33 7.235-17.196l1.392-3.714c10.787-28.992 19.316-58.774 25.42-89.098l.8-3.759c1.25-6.11 2.14-11.597 1.405-17.82.266-3.878 1.337-7.128 3.42-10.421 2.499-1.665 4.307-2.636 7.043-3.656l2.107-.861c6.047-2.413 12.239-4.42 18.442-6.39 6.001-1.91 11.713-4.209 17.408-6.906l2.376-1.103c1.502-.698 3.002-1.398 4.501-2.102a265.533 265.533 0 0 1 6.166-2.748c15.9-6.877 31.408-14.605 46.957-22.234l3.485-1.707c16.791-8.244 33.3-16.964 49.515-26.293Z" fill="#EC892A"/><path d="M404 1307c3.81 3.652 7.052 7.496 10.25 11.688a224.23 224.23 0 0 0 12.605 14.917c2.142 2.391 4.107 4.867 6.082 7.395 4.38 5.416 9.203 10.327 14.125 15.25l2.291 2.293a253.298 253.298 0 0 0 12.894 11.942c2.17 1.875 4.271 3.82 6.378 5.765 25.422 22.872 54.847 40.816 85.118 56.451A528.94 528.94 0 0 1 571 1442c-.57 4.26-1.586 7.773-3.336 11.691l-1.458 3.313-1.581 3.559c-15.522 35.551-29.153 72.77-38.832 110.365-.89 3.451-1.813 6.894-2.734 10.338-17.12 64.478-27.647 130.89-28.375 197.68l-.063 4.9a9573.63 9573.63 0 0 0-.153 12.694c-.051 4.344-.106 8.69-.161 13.034-.107 8.475-.209 16.95-.307 25.426-4.017-1.86-6.895-4.524-10.063-7.563a180.952 180.952 0 0 0-12.203-10.675c-5.87-4.761-11.146-9.983-16.421-15.387-5.376-5.48-10.71-10.9-16.596-15.836-2.513-2.253-4.625-4.8-6.803-7.371-2.206-2.499-4.54-4.827-6.914-7.168-4.217-4.179-8.148-8.487-12-13-.977-1.126-1.955-2.25-2.934-3.375-2.819-3.239-5.63-6.485-8.435-9.736-1.032-1.196-2.066-2.39-3.102-3.582-6.559-7.555-12.673-15.359-18.623-23.4a412.859 412.859 0 0 0-6.743-8.839c-5.52-7.061-10.627-14.369-15.634-21.8-1.06-1.571-2.122-3.14-3.187-4.707-42.625-62.74-42.625-62.74-41.342-77.561.773-4.039 1.822-7.99 2.887-11.96l.905-3.47c.956-3.65 1.926-7.298 2.896-10.945.633-2.413 1.265-4.825 1.896-7.238 4.901-18.673 10.073-37.263 15.365-55.828l.684-2.4c1.197-4.2 2.395-8.402 3.594-12.602.966-3.386 1.93-6.772 2.894-10.158 4.981-17.516 10.006-35.016 15.293-52.442l.606-2c4.235-13.942 8.675-27.816 13.225-41.659l1.573-4.791c7.108-21.673 14.353-43.288 22.057-64.757l.924-2.58c.852-2.376 1.709-4.75 2.568-7.123l.768-2.136c1.748-4.794 1.748-4.794 2.865-5.911ZM1631 1307c2.643 1.322 2.682 2.348 3.654 5.103l.959 2.686 1.035 2.977 1.104 3.122c1.217 3.45 2.42 6.906 3.623 10.362l1.268 3.626c25.478 72.94 47.914 146.844 67.616 221.556 1.293 4.896 2.606 9.787 3.925 14.676 1.026 3.81 2.043 7.623 3.059 11.435.5 1.874 1.005 3.747 1.513 5.618.716 2.64 1.419 5.282 2.119 7.925l.652 2.37c1.984 7.586 2.54 13.608-1.386 20.747l-1.863 3.439a3056.84 3056.84 0 0 1-2.028 3.608c-.693 1.257-1.385 2.514-2.076 3.772A967.9 967.9 0 0 1 1708 1641l-1.63 2.867c-8.116 14.142-17.188 27.668-26.37 41.133l-1.854 2.722c-7.784 11.388-15.946 22.407-24.516 33.215a695.837 695.837 0 0 0-4.638 5.946c-4.733 6.115-9.598 12.026-14.84 17.719-2.17 2.419-4.193 4.915-6.215 7.46-7.618 9.42-16.119 18.175-24.714 26.704-2.9 2.882-5.554 5.894-8.157 9.046-1.855 1.965-3.755 3.685-5.8 5.446-4.25 3.669-8.16 7.602-12.079 11.617-5.226 5.294-10.512 10.231-16.378 14.82-4.268 3.502-8.239 7.316-12.216 11.142-4.382 4.163-4.382 4.163-6.593 4.163l-.018-2.692c.077-57.754.077-57.754-3.982-115.308l-.312-2.735c-2.599-22.557-5.584-45.025-10.097-67.287-.6-3.021-1.154-6.048-1.696-9.08-4.557-25.187-10.504-50.265-18.215-74.677a236.556 236.556 0 0 1-1.993-6.955c-9.149-33.499-21.716-66.191-35.12-98.188l-1.352-3.232a219.983 219.983 0 0 0-3.125-6.924c-1.17-3.138-1.446-3.946-.09-6.922 2.382-1.565 2.382-1.565 5.555-3.066l3.525-1.705 1.877-.885c3.228-1.525 6.432-3.1 9.637-4.672l1.936-.947c8.415-4.137 16.478-8.831 24.47-13.725l1.86-1.133c26.99-16.556 51.342-37.001 74.14-58.867l1.63-1.56a179.516 179.516 0 0 0 16.202-17.776c2.074-2.548 4.242-4.948 6.48-7.351 5.705-6.24 10.628-13.075 15.616-19.89C1630 1308 1630 1308 1631 1307Z" fill="#A53F7F"/><path d="M1465 1443c18.483 42.297 35.333 85.852 46.637 130.668a363.434 363.434 0 0 0 3.25 11.958c3.648 12.649 6.364 25.506 9.113 38.374l.787 3.66c6.166 28.784 10.672 57.604 13.934 86.852.178 1.587.358 3.174.542 4.761 2.824 24.423 3.304 49.046 3.648 73.61.053 3.604.135 7.206.242 10.81.127 4.305.187 8.608.199 12.916.015 1.606.052 3.211.114 4.815.435 11.993.435 11.993-2.748 16.318-3.506 3.665-7.512 6.454-11.718 9.258a178.114 178.114 0 0 0-3.77 3.059c-20.224 15.81-40.886 30.985-62.355 45.066l-2.458 1.616c-22.97 15.072-46.513 29.055-70.813 41.882a878.463 878.463 0 0 0-7.213 3.865c-67.972 36.58-141.289 63.048-351.391 97.512v-1l2.366-.24c38.745-4.067 76.343-13.056 112.842-26.722 2.699-1.003 5.408-1.973 8.12-2.94 6.764-2.458 13.41-5.194 20.047-7.973l2.023-.847c38.084-16.005 74.712-35.603 108.602-59.278l2.105-1.47c11.011-7.732 21.567-15.91 31.895-24.53l1.745-1.445c17.581-14.559 35.338-30.181 49.403-48.211 1.775-2.246 3.648-4.316 5.602-6.407 6.4-7.125 11.755-15.111 17.25-22.937l1.353-1.898C1421.639 1795.7 1437.17 1750.64 1442 1704l.263-2.509c.658-6.676.924-13.292.975-19.999l.03-3.247c.175-24.122-.32-47.417-4.268-71.245-.208-1.34-.413-2.681-.617-4.022-5.932-38.877-16.313-76.942-29.559-113.943l-.785-2.193c-1.24-3.454-2.494-6.9-3.775-10.338l-1.342-3.66-1.2-3.213C1401 1467 1401 1467 1402 1464a64.616 64.616 0 0 1 6.875-2.348l4.393-1.32 2.342-.69c13.296-3.92 26.226-8.259 39.011-13.644l2.848-1.197 2.45-1.058C1462 1443 1462 1443 1465 1443ZM572 1443c4.995 1.618 9.93 3.328 14.836 5.2 15.886 6.055 31.796 11.204 48.164 15.8-1.451 7.501-3.848 14.408-6.5 21.563-14.06 38.828-24.981 78.585-31.191 119.445-.3 1.94-.621 3.875-.942 5.811-3.084 18.82-3.733 37.321-3.742 56.369l-.006 3.388c.004 22.195 1.587 43.731 6.381 65.424l.625 2.867c8.788 39.602 26.858 75.938 51.375 108.133l1.477 1.953c5.377 7.08 10.972 13.846 17.039 20.352a242.211 242.211 0 0 1 5.66 6.386c4.368 5.01 9.053 9.684 13.761 14.371l2.592 2.604c4.995 4.987 10.094 9.764 15.471 14.334l3.168 2.738c29.055 24.77 61.148 46.31 94.832 64.262l3.056 1.63c15.08 8.004 30.272 15.591 45.944 22.37l2.876 1.249c22.536 9.728 45.512 18.035 69.124 24.751l2.753.784c25.021 7.03 50.376 11.776 76.247 14.216v1c-11.207.141-22.268-.164-33.438-1.125l-2.28-.192c-66.208-5.67-130.652-21.374-193.333-43.011-1.801-.621-3.604-1.238-5.406-1.854-48.73-16.727-96.544-38.597-141.112-64.42a544.647 544.647 0 0 0-8.532-4.783c-17.802-9.863-34.855-20.793-51.712-32.178l-2.33-1.57c-20.885-14.107-41.416-28.8-60.641-45.125-2.2-1.806-2.2-1.806-4.758-3.26-4.24-2.74-7.005-4.808-8.357-9.8-.311-4.154-.306-8.199-.183-12.358.01-1.553.016-3.106.017-4.66.019-4.139.1-8.275.198-12.413.073-3.43.11-6.859.148-10.288.27-24.292 1.012-48.562 3.491-72.739.228-2.229.448-4.458.666-6.688 8.315-83.833 30.516-166.327 66.75-255.036l.85-2.05c.787-1.892 1.583-3.78 2.38-5.669l1.368-3.248C570 1445 570 1445 572 1443Z" fill="#4F1B80"/><path d="m917 1329 1.079 2.205c7.63 15.551 15.576 30.799 24.222 45.816 3.103 5.44 6.11 10.933 9.136 16.417 5.926 10.707 12.027 21.3 18.223 31.851 3.203 5.46 6.34 10.956 9.465 16.461a972.841 972.841 0 0 0 13.004 22.136c5.475 9.077 10.821 18.23 16.173 27.38a4456472995.816 4456472995.816 0 0 0 3.987 6.822 239.765 239.765 0 0 0 3.435 5.67C1017 1506 1017 1506 1017 1508h2l.747-2.569c1.367-3.743 3.205-6.97 5.3-10.333.815-1.333 1.63-2.666 2.443-4l1.264-2.058a835.65 835.65 0 0 0 5.824-9.731l2.308-3.887c2.878-4.85 5.755-9.7 8.63-14.552 2.366-3.988 4.737-7.974 7.113-11.956 6.191-10.395 12.19-20.881 18.07-31.456 4.027-7.231 8.164-14.389 12.363-21.52 9.88-16.825 19.025-34.036 27.981-51.366 2.549-4.924 5.164-9.782 7.957-14.572 3.678 1.312 6.378 2.903 9.438 5.313 21.493 15.945 45.997 26.52 70.562 36.687-3.704 6.99-7.625 13.722-12 20.313l-3.45 5.257-1.778 2.712c-2.898 4.445-5.742 8.925-8.584 13.406a7292.546 7292.546 0 0 1-15.063 23.624l-2.018 3.153-8.148 12.722c-7 10.929-13.996 21.86-20.959 32.813a11625.77 11625.77 0 0 1-20.946 32.792c-2.08 3.25-4.16 6.5-6.238 9.751-5.834 9.125-11.669 18.248-17.566 27.332-4.315 6.647-8.553 13.34-12.775 20.047a1344.644 1344.644 0 0 1-9.85 15.39 2599.302 2599.302 0 0 0-14.062 21.942 7227.388 7227.388 0 0 1-16.146 25.271l-1.92 2.998-1.818 2.828c-1.545 2.437-3.033 4.902-4.519 7.376L1019 1655h-2a168.89 168.89 0 0 1-5.125-7.938 5755.172 5755.172 0 0 0-3.266-5.257l-1.767-2.853c-3.193-5.118-6.458-10.189-9.717-15.264A7482.752 7482.752 0 0 1 982 1600c-9.962-15.668-19.95-31.319-30.06-46.892-3.872-5.978-7.67-12.002-11.465-18.03a1344.644 1344.644 0 0 0-9.85-15.39 2297.274 2297.274 0 0 1-12.313-19.188 8161.776 8161.776 0 0 0-17.205-26.964L895 1464a13670.052 13670.052 0 0 1-24.716-38.699 8267.616 8267.616 0 0 0-13.159-20.613l-1.995-3.117a30192.242 30192.242 0 0 0-12.8-19.978l-4.19-6.536-1.91-2.979-1.675-2.612L833 1367l-1.702-2.692C830 1362 830 1362 830 1360l2.19-.348c44.015-6.763 44.015-6.763 81.572-29.418C915 1329 915 1329 917 1329Z" fill="#FCBD0B"/><path d="m282 1061 2.116.935c3.032 1.12 5.842 1.61 9.032 2.112 7.758 1.644 14.891 3.49 20.852 8.953 5.514 9.564 5.512 22.64 6.517 33.376.579 5.948 1.76 11.696 3.17 17.499l.704 2.994c9.945 40.938 24.626 79.906 42.945 117.787l1.358 2.828c1.148 2.212 2.419 4.138 3.845 6.172 1.61 3.687 1.565 3.98.265 7.501l-.874 2.411L371 1266l-.82 2.184a572.957 572.957 0 0 1-2.586 6.644l-.973 2.48a5773.95 5773.95 0 0 1-2.056 5.233c-1.815 4.617-3.62 9.24-5.424 13.861l-2.15 5.504-1.028 2.63-1.812 4.635c-7.545 19.285-14.304 38.766-20.72 58.449-1.132 3.468-2.274 6.933-3.42 10.397-10.021 30.289-18.655 60.938-26.011 91.983l-.596 2.514c-4.743 20.04-9.338 40.098-13.029 60.361l-.383 2.087c-2.42 12.144-2.42 12.144.176 23.983l1.441 3.472.78 1.83c.812 1.909 1.605 3.826 2.396 5.744 2.768 6.645 5.717 13.13 9.047 19.513 10.767 20.837 10.767 20.837 8.106 30.746a72.809 72.809 0 0 1-2.188 5.854c-1.27 3.212-1.97 6.536-2.75 9.896h-2a8587.48 8587.48 0 0 1-5.542-13.373 3397.41 3397.41 0 0 0-1.873-4.516c-5.102-12.281-9.906-24.663-14.585-37.111-.696 6.331-1.39 12.663-2.081 18.994l-.707 6.447c-1.81 16.26-1.81 16.26-3.212 32.559l-3-1c-.764-1.894-.764-1.894-1.324-4.457l-.666-2.989-.697-3.367-.766-3.595c-.876-4.192-1.719-8.39-2.547-12.592l-.466-2.36c-10.68-54.314-17.568-109.231-21.284-164.453l-.18-2.65c-1.732-26.034-2.238-52.052-2.2-78.135.005-3.919.002-7.838-.004-11.756-.033-26.656.292-53.31 2.384-79.896l.19-2.466c5.095-65.726 15.404-131.913 33.478-195.383.275-.976.55-1.95.832-2.956l.734-2.546c.545-2.533.608-4.816.516-7.399Z" fill="#DE601D"/><path d="M1466 1057c2.146 2.146 2.63 3.364 3.586 6.191l.876 2.588.913 2.784.942 2.861c5.62 17.396 9.552 35.188 8.683 53.576l-.108 2.42c-2.152 42.81-20.45 83.905-52.455 112.955A248.124 248.124 0 0 1 1424 1244l-1.62 1.304c-33.825 27.004-77.03 40.742-120.349 36.231-37.114-4.586-69.192-20.902-96.031-46.535l-2.469-2.344c-5.334-5.188-10.007-10.752-14.531-16.656 3.247-3.329 6.571-6.39 10.188-9.313l2.906-2.355c2.692-2.16 5.392-4.31 8.093-6.457 3.785-3.015 7.445-6.14 11.07-9.344 9.707-8.531 9.707-8.531 13.743-8.531v-2c1.57-1.293 1.57-1.293 3.77-2.758l2.425-1.632 2.618-1.735c1.771-1.19 3.542-2.381 5.312-3.574l2.586-1.74c2.588-1.765 5.102-3.611 7.601-5.498 23.598-17.327 49.735-31.81 75.59-45.428 2.915-1.538 5.82-3.092 8.723-4.65 33.778-18.022 69.058-32.931 104.705-46.812l2.012-.783a3927.41 3927.41 0 0 1 5.358-2.078c3.463-1.377 6.881-2.83 10.3-4.312Z" fill="#2C3F51"/><path d="M1858 912c2.36 3.54 3.349 7.103 4.504 11.145l.726 2.502c.785 2.72 1.56 5.442 2.332 8.165.265.928.53 1.855.801 2.81 3.93 13.83 7.595 27.71 10.95 41.69l.6 2.465c.558 2.297 1.1 4.597 1.638 6.899l.497 2.037c.842 3.714 1.437 6.715-.048 10.287-2.382 1.786-2.382 1.786-5.555 3.418l-3.52 1.846a7639.23 7639.23 0 0 1-3.8 1.923 1751.95 1751.95 0 0 0-3.89 2.022c-2.573 1.34-5.152 2.67-7.735 3.992-3.6 1.85-7.17 3.746-10.738 5.657-21.52 11.494-43.462 22.252-65.762 32.142l-2.534 1.129c-11.164 4.95-22.476 9.528-33.824 14.034-1.505.597-3.01 1.196-4.514 1.796-2.116.844-4.235 1.68-6.355 2.514l-1.938.775c-2.786 1.087-4.812 1.752-7.835 1.752l-.313 3.938c-.701 6.9-1.929 13.691-3.207 20.502-.33 1.763-.657 3.527-.98 5.291-8.23 44.757-22.151 90.432-42.5 131.269-2.232-2.05-3.58-3.841-4.8-6.609l-.977-2.19-1.04-2.38-2.29-5.142-1.212-2.743c-6.852-15.487-13.924-30.85-21.369-46.061l-1.1-2.25a3008.442 3008.442 0 0 0-12.45-25.106 1624.422 1624.422 0 0 1-5.309-10.683c-4.197-8.516-8.53-16.94-13.078-25.274l-1.476-2.732c-2.556-4.697-5.18-9.329-7.97-13.89-10.055-16.48-15.317-30.138-17.47-49.545-.663-4.906-1.751-9.695-2.862-14.516C1581 1022 1581 1022 1581 1019l2.252-.68a16509.294 16509.294 0 0 0 71.36-21.75c5.365-1.647 10.733-3.281 16.107-4.898 34.074-10.31 68.158-21.61 101.281-34.672l1.899-.748c27.752-10.946 54.82-22.916 80.406-38.373C1856 917 1856 917 1858 917v-5Z" fill="#983B18"/><path d="M591 1014c3.629.6 6.596 1.594 9.902 3.195l2.901 1.397 3.135 1.533 3.303 1.604c3.591 1.748 7.176 3.508 10.759 5.271l1.87.918c15.97 7.844 31.814 15.862 47.354 24.536 3 1.67 6.009 3.325 9.018 4.98 12.136 6.698 23.995 13.682 35.635 21.206 2.649 1.697 5.328 3.342 8.009 4.987 25.011 15.389 48.847 32.798 71.677 51.248l2.059 1.66c3.296 2.681 6.447 5.377 9.378 8.465l-2.563.297c-12.455 1.642-19.78 5.434-28.437 14.703-6.302 8.668-8.244 18.42-7 29 2.992 11.107 7.811 19.732 17.742 25.746 9.358 5.197 19.677 5.668 30.149 3.715 4.553-1.41 8.287-3.595 12.109-6.461l2.5-1.688c9.624-8.901 11.882-19.71 12.5-32.312 2.36 1.97 4.686 3.976 7 6l1.836 1.559c1.664 1.504 1.664 1.504 4.164 4.441.07 3.655-1.298 5.573-3.668 8.164a227.196 227.196 0 0 1-3.52 3.461l-1.909 1.863c-33.12 31.798-75.012 46.628-120.544 45.971-42.409-.977-81.852-21.552-111.242-51.37-1.793-1.97-3.46-4.001-5.117-6.089l-1.295-1.61c-13.635-17.077-23.761-35.756-29.893-56.765l-.721-2.464c-3.828-13.725-5.68-26.942-5.591-41.161l.005-2.294c.133-25.74 6.865-50.744 18.495-73.706Z" fill="#2C3F50"/><path d="M1753 1062c19.279 70.916 31.442 142.549 37.125 215.813l.23 2.882c1.886 25.764 1.93 51.61 1.957 77.43l.004 2.881c.075 90.06-8.676 180.55-28.191 268.556-.19.869-.382 1.737-.579 2.632-1.295 5.555-1.295 5.555-3.546 7.806-2.144-2.144-1.64-6.747-1.902-9.723-.083-.893-.166-1.785-.25-2.705-.267-2.878-.526-5.756-.785-8.634-.34-3.742-.682-7.483-1.028-11.223l-.255-2.757c-.756-8.01-1.713-15.984-2.78-23.958l-1.158 3.003c-13.994 36.26-13.994 36.26-20.842 51.997h-2a674.691 674.691 0 0 1-3.188-11.438c-.31-1.069-.622-2.138-.943-3.24-1.908-7.172-2.131-11.642 1.131-18.322l1.096-2.383c1.244-2.641 2.54-5.253 3.841-7.867 13.028-26.903 22.553-54.481 31.492-82.952.51-1.604 1.039-3.201 1.571-4.798.241-5.486-.267-10.066-1.617-15.426l-.522-2.097a956.672 956.672 0 0 0-1.736-6.79l-1.227-4.818c-16.737-65.3-38.668-129.545-64.355-191.853-.845-2.052-1.68-4.109-2.514-6.166-2.497-6.104-5.099-12.091-8.093-17.97-11.26-22.11-11.26-22.11-8.905-30.907 1.929-4.945 4.568-9.425 7.297-13.965 3.041-5.471 5.083-11.33 7.235-17.196l1.392-3.714c10.786-28.99 19.325-58.774 25.42-89.098l.79-3.755c1.074-5.31 1.971-10.297 1.847-15.725-.034-9.03-.034-9.03 2.988-12.52 8.21-5.045 21.284-11 31-11Z" fill="#DE5F1D"/><path d="M1631 1307c2.643 1.322 2.682 2.348 3.654 5.103l.959 2.686 1.035 2.977 1.104 3.122c1.217 3.45 2.42 6.906 3.623 10.362l1.268 3.626c25.478 72.94 47.914 146.844 67.616 221.556 1.293 4.896 2.606 9.787 3.925 14.676 1.026 3.81 2.043 7.623 3.059 11.435.5 1.874 1.005 3.747 1.513 5.618.716 2.64 1.419 5.282 2.119 7.925l.652 2.37c1.984 7.586 2.54 13.608-1.386 20.747l-1.863 3.439a3056.84 3056.84 0 0 1-2.028 3.608c-.693 1.257-1.385 2.514-2.076 3.772A967.9 967.9 0 0 1 1708 1641l-1.63 2.867c-8.116 14.142-17.188 27.668-26.37 41.133l-1.854 2.722c-7.784 11.388-15.946 22.407-24.516 33.215a695.837 695.837 0 0 0-4.638 5.946c-4.733 6.115-9.598 12.026-14.84 17.719-2.17 2.419-4.193 4.915-6.215 7.46-7.618 9.42-16.119 18.175-24.714 26.704-2.9 2.882-5.554 5.894-8.157 9.046-1.855 1.965-3.755 3.685-5.8 5.446-4.25 3.669-8.16 7.602-12.079 11.617-5.225 5.292-10.513 10.224-16.37 14.82-5.867 4.8-11.308 10.102-16.817 15.305-1-3-1-3-.218-4.78l1.288-2.01 1.447-2.311 1.608-2.524c46.417-75.348 66.87-166.195 78.875-290.375l.127-2.054c1.17-19.36 1.117-38.746 1.123-58.133l.002-2.658c.012-26.345-.396-52.497-3.014-78.733-.342-3.485-.656-6.973-.972-10.46-.41-4.489-.835-8.976-1.266-13.462l-.235-2.444c-.942-9.633-2.155-19.174-3.8-28.715-1.803-10.695-1.803-10.695.12-14.475l1.505-1.917 1.627-2.115 1.72-2.147 1.71-2.205c3.96-5.09 3.96-5.09 5.353-6.482ZM404 1307c3.478 3.404 6.783 6.865 9.875 10.625l2.43 2.852c2.444 5.08 1.564 9.079.695 14.523-.206 1.543-.41 3.086-.613 4.629l-.338 2.379c-1.586 11.221-2.763 22.48-3.853 33.76a2396.24 2396.24 0 0 1-.507 5.18A1063.936 1063.936 0 0 0 410 1400l-.274 3.388c-1.706 21.843-2.071 43.614-2.042 65.517.005 3.672-.002 7.344-.02 11.017-.13 26.492.941 52.692 3.336 79.078l.324 3.59a739.158 739.158 0 0 0 1.988 18.723l.315 2.708c9.73 83.252 30.26 175.553 78.157 245.669L493 1832l-1 3-1.145-1.215a111.678 111.678 0 0 0-10.793-9.785c-10.893-8.787-20.854-18.684-30.677-28.636-2.826-2.852-5.7-5.58-8.76-8.177-3.248-2.76-5.96-5.771-8.71-9.019-2.207-2.499-4.542-4.827-6.915-7.168-4.217-4.179-8.148-8.487-12-13-.977-1.126-1.955-2.25-2.934-3.375-2.819-3.239-5.63-6.485-8.435-9.736-1.032-1.196-2.066-2.39-3.102-3.582-6.559-7.555-12.673-15.359-18.623-23.4a412.859 412.859 0 0 0-6.743-8.839c-5.52-7.061-10.627-14.369-15.634-21.8-1.06-1.571-2.122-3.14-3.187-4.707-42.625-62.74-42.625-62.74-41.342-77.561.773-4.039 1.822-7.99 2.887-11.96l.905-3.47c.956-3.65 1.926-7.298 2.896-10.945.633-2.413 1.265-4.825 1.896-7.238 4.901-18.673 10.073-37.263 15.365-55.828l.684-2.4c1.197-4.2 2.395-8.402 3.594-12.602.966-3.386 1.93-6.772 2.894-10.158 4.981-17.516 10.006-35.016 15.293-52.442l.606-2c4.235-13.942 8.675-27.816 13.225-41.659l1.573-4.791c7.108-21.673 14.353-43.288 22.057-64.757l.924-2.58c.852-2.376 1.709-4.75 2.568-7.123l.768-2.136c1.748-4.794 1.748-4.794 2.865-5.911Z" fill="#D960BC"/><path d="M1424 1361c4.358 7.987 8.69 15.988 13 24l1.584 2.943c7.975 14.878 15.195 30.04 22.186 45.398a91.146 91.146 0 0 0 2.394 4.828C1464 1440 1464 1440 1464 1443c-86.218 36.745-194.246 52.967-284.445 19.73-3.066-.876-4.574-.867-7.555.27-2.434 2.054-2.434 2.054-4.688 4.75l-1.3 1.481c-4.481 5.172-8.608 10.618-12.728 16.078a654.175 654.175 0 0 1-6.597 8.504l-1.37 1.745c-4.103 5.204-8.287 10.34-12.476 15.476-5.366 6.589-10.613 13.268-15.841 19.966a1391.671 1391.671 0 0 1-19.225 24.098c-3.41 4.188-6.75 8.42-10.025 12.715-3.71 4.861-7.526 9.611-11.418 14.328-2.57 3.15-5.08 6.342-7.582 9.546a842.492 842.492 0 0 1-12.125 15.126c-6.152 7.53-12.07 15.223-17.943 22.971-2.987 3.935-5.992 7.856-8.995 11.778l-3.3 4.317L1024 1649l-1-2c.918-1.85.918-1.85 2.402-4.129l1.675-2.599 1.86-2.834 3.891-6.016 2.072-3.186c2.772-4.272 5.512-8.565 8.252-12.858a4008.436 4008.436 0 0 1 16.907-26.27c3.873-5.978 7.671-12.002 11.466-18.03a1344.644 1344.644 0 0 1 9.85-15.39c4.14-6.374 8.237-12.773 12.313-19.188a8161.776 8161.776 0 0 1 15.187-23.813l2.018-3.151 8.148-12.723c7-10.929 13.996-21.86 20.959-32.813 8.317-13.081 16.68-26.133 25.041-39.187l6.084-9.5 1.993-3.113c3.27-5.11 6.535-10.224 9.788-15.345l1.898-2.987c1.17-1.842 2.338-3.684 3.505-5.527A728.213 728.213 0 0 1 1199 1372a1130.062 1130.062 0 0 1 16.883 4.684A317.056 317.056 0 0 0 1261 1386l3.6.533c5.372.662 10.743.649 16.15.67l3.425.017c2.394.01 4.788.016 7.181.02 3.577.01 7.153.04 10.73.072 19.614.092 38.883-1.48 58.039-5.874l3.316-.75c18.357-4.35 36.704-10.356 53.723-18.508C1420 1361 1420 1361 1424 1361Z" fill="#7C1E58"/><path d="m692 1349 2.64.443a3930.2 3930.2 0 0 0 9.89 1.638c1.416.234 2.83.47 4.245.707 15.478 2.6 30.677 3.448 46.35 3.462l2.655.004c19.357-.006 38.519-1.248 57.4-5.8 3.183-.512 4.836-.718 7.82.546a64.872 64.872 0 0 1 4.938 7.188l2.921 4.699 1.55 2.529c2.706 4.395 5.5 8.735 8.279 13.084l3.582 5.637a6750.616 6750.616 0 0 0 13.623 21.327L864 1414a13670.052 13670.052 0 0 1 24.716 38.699c6.388 10.044 12.81 20.068 19.23 30.093 2.08 3.25 4.16 6.5 6.238 9.751 5.834 9.125 11.669 18.248 17.566 27.332 4.315 6.647 8.553 13.34 12.775 20.047a1344.644 1344.644 0 0 0 9.85 15.39c4.738 7.297 9.416 14.63 14.082 21.972 4.5 7.082 9.018 14.151 13.543 21.216 5.213 8.143 10.425 16.286 15.625 24.438l1.684 2.632A645.103 645.103 0 0 1 1010 1643c-3.073-1.332-4.769-2.621-6.742-5.316l-1.52-2.04-1.613-2.207c-4.624-6.193-9.364-12.25-14.313-18.187a528.596 528.596 0 0 1-14.261-17.95c-3.969-5.176-8.13-10.2-12.254-15.253-9.816-12.031-19.415-24.236-28.973-36.473a1064.406 1064.406 0 0 0-14.699-18.387c-5.123-6.262-10.061-12.646-14.947-19.094a350.336 350.336 0 0 0-12.264-15.187c-4.508-5.427-8.762-11.054-13.055-16.652l-1.804-2.346c-1.222-1.588-2.441-3.18-3.657-4.773l-1.789-2.319-1.594-2.08c-1.59-1.976-1.59-1.976-4.515-3.736-2.946.711-5.7 1.534-8.563 2.5-20.72 6.57-41.898 10.722-63.437 13.5l-2.666.36c-48.705 6.307-100.053.795-147.45-10.98-2.054-.479-2.054-.479-4.884-.38 9.506-29.846 24.216-59.33 39.617-86.548a784.874 784.874 0 0 0 4.137-7.444c4.274-7.762 8.653-15.43 13.246-23.008Z" fill="#7E1F56"/><path d="M212 823c4.223 1.436 7.163 3.522 10.625 6.313 22.71 17.921 47.884 32.88 73.08 46.995 4.381 2.458 8.723 4.944 12.994 7.587 6.193 3.742 12.686 6.861 19.173 10.052 3.482 1.723 6.942 3.486 10.405 5.244a1292.08 1292.08 0 0 0 58.586 27.858 3677.5 3677.5 0 0 1 6.592 2.943 4503.788 4503.788 0 0 0 54.88 24.14l3.281 1.42c2.43 1.04 4.864 2.065 7.307 3.076l1.958.818c1.81.755 3.624 1.504 5.438 2.253C479 963 479 963 480 965c-.557 2.296-.557 2.296-1.512 5.18l-1.042 3.226-1.134 3.469c-3.587 11.289-6.289 22.467-8.312 34.125l-1.25 6.75c-.252 1.416-.503 2.833-.75 4.25-5.44-.56-10.455-1.55-15.677-3.202l-2.196-.677a1869.66 1869.66 0 0 1-7.15-2.23c-1.69-.524-3.38-1.048-5.07-1.57a6344.06 6344.06 0 0 1-13.494-4.201c-4.666-1.456-9.334-2.905-14.003-4.355-5.52-1.715-11.041-3.43-16.561-5.15a3849.328 3849.328 0 0 0-27.58-8.498C325.374 980.307 286.432 967.924 249 952a3691.46 3691.46 0 0 0-5.57-2.305c-20.05-8.346-39.772-17.704-58.545-28.64-2.037-1.183-2.037-1.183-4.932-2.364C178 917 178 917 177.724 913.39c.116-4.44 1.218-8.172 2.733-12.316l.784-2.232c.843-2.39 1.706-4.772 2.571-7.154l1.787-4.995C193.393 865.022 202.25 843.865 212 823Z" fill="#622210"/><path d="M1589 1065a77.97 77.97 0 0 1 6.047 9.313l1.788 3.216 1.915 3.471.991 1.792c11.01 19.908 21.792 39.924 31.84 60.338a1791.09 1791.09 0 0 0 4.233 8.49c11.607 23.16 22.849 46.464 33.233 70.202 1.033 2.361 2.07 4.72 3.105 7.08 17.634 40.203 33.824 80.85 48.848 122.098l.844 2.313c12.083 33.119 22.78 66.703 32.156 100.687l1.64 5.86a946.35 946.35 0 0 1 7.235 27.515l.653 2.576.59 2.447.518 2.115c1.01 6.9.157 12.298-2.05 18.8l-.764 2.339a768.214 768.214 0 0 1-1.62 4.88 976.314 976.314 0 0 0-2.409 7.3c-4.737 14.41-9.976 28.582-15.918 42.543l-1.39 3.279c-5.23 12.237-10.829 24.3-16.485 36.346h-1l-.747-3.003c-6.44-26.047-6.44-26.047-13.253-51.997l-.821-3.024c-5.314-19.508-10.83-38.957-16.432-58.383-.79-2.74-1.578-5.481-2.366-8.222-7.478-25.98-15.16-51.872-23.483-77.594-.98-3.028-1.955-6.058-2.93-9.087-9.802-30.424-19.985-60.671-30.968-90.69-3.485 3.424-6.48 6.827-9.313 10.813l-2.113 2.957L1619 1324l-2-1a121.149 121.149 0 0 1-1.664-8.09l-.949-5.203-.498-2.787c-4.749-26.416-10.516-52.413-18.076-78.17l-.62-2.112c-2.48-8.405-5.217-16.658-8.366-24.836C1586 1199 1586 1199 1587 1196a855.091 855.091 0 0 1 16.125 35.813l1.096 2.578c7.131 16.803 13.838 33.758 20.328 50.817a619.38 619.38 0 0 0 2.949 7.587l1.393 3.537 1.235 3.105C1631 1302 1631 1302 1631 1305c4.536-4.144 7.704-8.774 11-13.938l1.691-2.626a652.561 652.561 0 0 0 16.883-27.988 109.797 109.797 0 0 1 2.946-4.775c2.852-4.537 4.235-7.79 3.24-13.145-1.68-5.586-4.165-10.82-6.635-16.09l-1.78-3.88c-1.2-2.617-2.407-5.232-3.621-7.843-1.54-3.315-3.062-6.638-4.576-9.965a3006.261 3006.261 0 0 0-6.772-14.755 1585.318 1585.318 0 0 1-4.071-8.952c-7.27-15.982-15.03-31.708-22.868-47.418l-1.59-3.195A1113.133 1113.133 0 0 0 1592 1087l-1 14h-1l-1-36Z" fill="#94458A"/><path d="M929 71c33.261 41.61 34.331 119.72 29 170-6.207 49.685-22.992 98.696-50 141l-1.574 2.637c-3.951 3.849-8.829 5.61-13.864 7.738l-3.392 1.456C843.734 413.02 794.082 420.077 745 419c2.125-2.315 4.113-3.736 6.922-5.129l2.336-1.182 2.492-1.252C778.248 400.373 798.261 385.466 815 368c5-5 5-5 6.988-6.918 5.817-5.676 11.05-11.65 16.012-18.082l1.551-2.008C848.881 328.824 857.207 316.2 865 303l1.326-2.227c10.922-18.47 20.352-38.332 26.99-58.744 1.015-3.01 2.15-5.973 3.277-8.944 3.663-9.682 6.79-19.472 9.641-29.422.56-1.947 1.13-3.89 1.706-5.832 2.57-8.766 4.698-17.593 6.622-26.518l.462-2.123c2.218-10.229 4.154-20.45 5.618-30.815.394-2.613.85-5.211 1.315-7.813 2.55-14.516 3.995-28.994 5.092-43.679l.173-2.297c.107-1.427.21-2.855.31-4.283.235-3.197.544-6.226 1.468-9.303Z" fill="#A22642"/><path d="M1136 77c24.918 37.376 31.908 97.074 33 141l.066 2.626c.728 34.676-2.713 69.896-12.066 103.374l-.839 3.003c-4.674 16.439-10.473 32.276-17.161 47.997l-1.16 2.743A407.5 407.5 0 0 1 1130 395l-1.187 2.475c-5.06 10.365-9.507 17.736-19.813 23.525-1.35.826-2.697 1.655-4.043 2.488C1065.442 447.56 1021.387 461.53 975 461v-2a128.467 128.467 0 0 1 6.125-4.375c18.514-12.866 36.452-29.097 50.508-46.703 2.03-2.506 4.124-4.937 6.254-7.359 7.521-8.626 13.86-17.994 20.113-27.563l1.602-2.437C1074.734 347.37 1086.729 322.68 1097 297l1.078-2.661c3.773-9.33 7.13-18.663 9.922-28.339l1.621-5.434c6.223-20.928 11.346-41.944 15.504-63.378l.518-2.643c.767-4.014 1.44-7.99 1.85-12.057a76.815 76.815 0 0 1 1.44-8.914c1.466-7.035 2.123-14.173 2.872-21.313.255-2.427.518-4.853.783-7.279 1.773-16.464 2.6-32.87 2.975-49.42l.13-5.431c.106-4.377.208-8.754.307-13.131Z" fill="#A02642"/><path d="m856 1191 2.133 2.137c1.905 1.905 3.817 3.803 5.734 5.695 5.608 5.547 11.035 11.143 16.133 17.168.9 1.037 1.801 2.074 2.703 3.11a509.573 509.573 0 0 1 18.857 23.024c1.502 1.946 3.014 3.885 4.526 5.823 23.7 30.522 44.24 63.224 62.439 97.285.975 1.823 1.954 3.643 2.938 5.461 15.382 28.432 27.76 58.228 39.537 88.297l.885 2.252c.86 2.196 1.708 4.395 2.553 6.596l.785 2.006c1.259 3.319 1.777 5.53 1.777 9.146h2l.358-2.592c.66-3.506 1.668-6.596 2.908-9.94l.694-1.877c.756-2.033 1.522-4.062 2.29-6.091l.807-2.14c24.847-65.722 58.124-128.54 100.943-184.36l1.478-1.933c5.766-7.514 11.767-14.805 17.924-22 2.325-2.725 4.557-5.514 6.785-8.317 7.356-9.057 15.536-17.533 23.813-25.75l1.863 3.36 2.45 4.39 1.224 2.21c2.411 4.317 2.411 4.317 5.318 8.306 1.145 1.734 1.145 1.734.91 3.642-.9 2.463-1.931 3.54-3.863 5.299l-1.918 1.767-2.046 1.839-2.075 1.9a411.584 411.584 0 0 1-10.363 9.162c-3.078 2.653-5.643 5.536-8.262 8.637-3.066 3.409-6.344 6.586-9.613 9.8-5.17 5.105-9.957 10.304-14.457 16.02-2.413 2.969-4.99 5.756-7.605 8.543-4.672 5.01-8.884 10.256-12.989 15.734a223.084 223.084 0 0 1-5.68 7.22l-1.556 1.92c-1 1.23-2.008 2.454-3.024 3.67-1.521 1.838-1.521 1.838-3.314 4.581 1.227 3.681 2.64 4.534 5.688 6.875l2.722 2.117L1113 1323a547.14 547.14 0 0 1 6 5c-.599 3.663-1.614 6.612-3.266 9.93l-1.427 2.872-1.557 3.073-1.626 3.227c-5.152 10.128-10.73 19.987-16.384 29.84-3.15 5.534-6.22 11.112-9.303 16.683-15.71 28.332-32.148 56.237-48.734 84.064-3.47 5.827-6.922 11.66-10.277 17.553l-1.561 2.74a637.576 637.576 0 0 0-2.745 4.892c-.986 1.74-2.044 3.44-3.12 5.126h-2l-1.278-2.253c-8.252-14.53-16.593-28.986-25.24-43.286-8.472-14.064-16.704-28.264-24.817-42.538-2.154-3.781-4.318-7.556-6.481-11.332A8719.186 8719.186 0 0 1 948 1389l-1.837-3.22a1106.678 1106.678 0 0 1-20.413-37.467l-.99-1.898c-.93-1.786-1.853-3.575-2.776-5.364l-1.602-3.104c-1.376-2.934-2.423-5.855-3.382-8.947l-2.098 1.688c-24.788 19.334-55.299 26.01-85.902 30.312l-7-12 5.781-1.758c34.653-10.598 67.834-23.553 97.219-45.242-1.328-2.863-2.822-5.19-4.836-7.617l-1.707-2.067-1.832-2.191-1.905-2.29c-1.901-2.283-3.81-4.56-5.72-6.835l-1.59-1.904c-12.365-14.778-25.748-28.524-39.347-42.159l-1.777-1.784c-6.25-6.272-12.507-12.445-19.286-18.153l-8-7a691.967 691.967 0 0 1 7.605-7.535l2.582-2.527 2.606-2.536c1.94-2.112 3.122-3.778 4.207-6.402Z" fill="#C48E0B"/><path d="M449 1196c1.255 3.765.55 4.965-.773 8.66l-1.238 3.542-.673 1.9c-10.16 28.825-17.579 58.8-22.945 88.87l-.412 2.308c-.669 3.755-1.323 7.512-1.956 11.273l-.706 4.08-.614 3.653L419 1323l-2 1-12-16c-1.621 2.432-2.527 4.147-3.486 6.826-.28.776-.56 1.552-.847 2.352l-.913 2.576-.978 2.735a2964.654 2964.654 0 0 0-3.214 9.073l-1.126 3.188c-19.433 55.058-36.711 110.793-52.682 166.943l-1.368 4.807c-5.794 20.34-11.332 40.725-16.547 61.221-1.159 4.53-2.35 9.05-3.554 13.568l-.58 2.183c-.74 2.776-1.482 5.552-2.224 8.327a6979.41 6979.41 0 0 0-1.696 6.365l-.972 3.64A131.26 131.26 0 0 0 313 1610c-2.76-3.344-4.525-6.981-6.293-10.906l-.932-2.04a1449.35 1449.35 0 0 1-2.962-6.554l-1.014-2.25c-1.988-4.422-3.96-8.85-5.924-13.281-.786-1.77-1.58-3.535-2.374-5.3a482.153 482.153 0 0 1-3.501-8.044l-1.005-2.22c-2.484-6.039-2.002-11.041-.995-17.405l.573-3.695c.708-4.384 1.497-8.751 2.302-13.118l.451-2.456c4.032-21.776 9.284-43.258 14.674-64.731l.649-2.597C323.395 1388.451 346.037 1322.524 373 1259h2l1.019 1.857c6.746 12.25 13.648 24.178 21.837 35.522 1.156 1.637 2.243 3.307 3.328 4.992 1.552 2.697 1.552 2.697 3.816 3.629l.28-2.411c.916-4.568 2.521-8.682 4.228-13.007l1.083-2.782c1.171-2.998 2.352-5.993 3.534-8.987l1.22-3.105c20.97-53.338 20.97-53.338 33.655-78.708Z" fill="#94458A"/><path d="M177 912h1v5l2.165.82c2.857 1.19 5.494 2.556 8.202 4.051l3.146 1.723 3.362 1.843C215.699 936.726 236.956 946.333 259 955l3.278 1.293C279.06 962.89 295.993 969.016 313 975c-.628 4.842-2.03 9.17-3.773 13.703-.58 1.538-1.157 3.075-1.736 4.613l-.922 2.438c-6.29 16.64-12.005 33.403-17.362 50.363-1.59 5.028-3.28 9.975-5.207 14.883-4.313-.58-7.925-1.626-11.918-3.344l-3.496-1.501-3.774-1.655-1.966-.857c-16.141-7.05-31.945-14.784-47.727-22.596-2.071-1.023-4.144-2.042-6.219-3.058C190.552 1019 172.478 1009.61 155 999c.602-6.632 1.781-12.872 3.406-19.324l.73-2.948c.781-3.14 1.572-6.278 2.364-9.415l.81-3.23c4.398-17.524 9.197-34.87 14.69-52.083Z" fill="#9D441C"/><path d="M1441 1014c1.836.102 1.836.102 4 1 1.79 2.273 1.79 2.273 3.625 5.375l1.012 1.704C1466 1050.038 1466 1050.038 1466 1058l-3.074 1.223c-4.458 1.775-8.911 3.564-13.364 5.352-2.524 1.01-5.05 2.016-7.577 3.018-22.994 9.122-45.62 18.835-67.985 29.407l-2.185 1.032c-45.319 21.42-89.204 46.164-129.459 76.159l-2.067 1.528-1.79 1.342C1237 1178 1237 1178 1235 1178v2c-1.906 1.227-1.906 1.227-4.5 2.625-4.574 2.636-7.979 5.548-11.516 9.445-2.441 2.375-5.148 4.045-7.984 5.93-2.39 1.915-4.695 3.922-7 5.938l-3.563 3.09-1.726 1.499c-2.544 2.19-5.125 4.333-7.711 6.473-4.7-1.495-6.359-5.288-8.688-9.313l-1.22-2.013c-3.858-6.534-3.858-6.534-4.092-10.674 1.504-2.2 1.504-2.2 3.777-4.398l2.498-2.454 2.662-2.523 2.557-2.5a313.908 313.908 0 0 1 13.623-12.476c3.146-2.755 6.16-5.648 9.196-8.524 5.165-4.857 10.42-9.504 15.964-13.93 2.475-1.995 4.892-4.046 7.3-6.122 7.23-6.22 14.777-11.94 22.45-17.6a300.622 300.622 0 0 0 5.387-4.125C1289.48 1097.33 1319.294 1079 1349 1062l2.622-1.508c26.27-15.066 53.306-29.243 80.815-41.93 4.594-1.827 4.594-1.827 8.563-4.562Z" fill="#1D2934"/><path d="M591 1014c3.641.485 6.61 1.601 9.902 3.195l2.901 1.397 3.135 1.533 3.303 1.604c3.591 1.748 7.176 3.508 10.759 5.271l1.87.918c15.97 7.844 31.814 15.862 47.354 24.536 3 1.67 6.009 3.325 9.018 4.98 12.136 6.698 23.995 13.682 35.635 21.206 2.649 1.697 5.328 3.342 8.009 4.987 25.011 15.389 48.847 32.798 71.677 51.248l2.059 1.66c3.296 2.681 6.447 5.377 9.378 8.465l-2.563.297c-12.885 1.698-19.093 5.742-28.437 14.703-5.367-2.763-10.397-5.907-15.375-9.313-19.02-12.891-39.327-23.97-59.625-34.687l-3.185-1.694c-24.19-12.848-48.881-24.32-74.065-35.056l-2.58-1.1c-8.429-3.584-16.868-7.104-25.463-10.275l-3.704-1.372a379.75 379.75 0 0 0-6.705-2.373l-2.92-1.052-2.513-.862C577 1061 577 1061 576.168 1058.644c-.169-2.653.045-4.478.766-7.023l.706-2.515.798-2.668.807-2.767c7.713-25.629 7.713-25.629 11.755-29.671Z" fill="#1D2834"/><path d="M1591 1085c3.946 4.45 6.424 9.375 9.078 14.645l1.466 2.877c1.575 3.094 3.14 6.192 4.706 9.29l3.263 6.429a8860.83 8860.83 0 0 1 8.034 15.883c1.314 2.602 2.631 5.202 3.95 7.802 8.88 17.521 17.46 35.148 25.503 53.074l.964 2.148c2.5 5.572 4.99 11.148 7.474 16.727l1.034 2.323c1.909 4.289 3.805 8.582 5.685 12.883.799 1.819 1.612 3.631 2.426 5.443l1.39 3.171c.395.89.791 1.78 1.2 2.696 1.168 3.684 1.424 6.931.115 10.61l-1.018 1.784-1.164 2.075-1.293 2.203-1.346 2.35c-7.435 12.87-15.271 25.52-23.592 37.837l-1.361 2.042c-3.156 4.589-3.156 4.589-6.514 5.708l-1.015-2.746c-12.456-33.606-25.93-66.762-40.707-99.417a1092.536 1092.536 0 0 1-3.755-8.442l-1.142-2.593c-.688-1.563-1.375-3.127-2.06-4.692-1.292-3.29-1.292-3.29-3.321-6.11-.08-6.918 1.79-13.665 3.412-20.336 4.694-19.395 6.721-38.834 7.713-58.726l.262-4.971c.21-3.989.413-7.978.613-11.967Z" fill="#4F2A54"/><path d="m631 1328 1.898.791c19.339 8.013 38.867 14.83 59.102 20.209a64.614 64.614 0 0 1-4.512 9.535l-1.523 2.657-1.653 2.87C665.885 1396.45 650.16 1429.552 636 1464c-8.702-.464-16.514-3.211-24.688-6l-2.192-.738A472.42 472.42 0 0 1 572 1443c.643-4.164 2.03-7.571 3.809-11.383l.854-1.84c.919-1.97 1.846-3.936 2.774-5.902l.96-2.045c4.842-10.307 9.922-20.447 15.34-30.465a509.676 509.676 0 0 0 4.052-7.787c6.79-13.243 14.073-26.124 21.651-38.93a854.92 854.92 0 0 0 6.435-11.148l1.867-3.281L631 1328Z" fill="#5D1638"/><path d="M1309 191c3.565 4.324 6.17 8.676 8.75 13.625l1.322 2.534c13.899 27.068 25.046 58.108 25.096 88.849l.01 2.21c.005 1.527.007 3.055.007 4.582.003 2.326.02 4.652.04 6.977.003 1.494.005 2.987.005 4.48l.022 2.085c-.082 17.55-17.7 33.257-29.314 44.97-25.384 25.132-57.88 43.866-92.043 54.118-1.891.569-3.77 1.179-5.649 1.789-3.032.73-4.407.917-7.246-.219l2.21-1.992c13.387-12.157 26.81-24.59 37.79-39.008l2.402-3.027c6.34-8.02 12.08-16.37 17.598-24.973l2.172-3.336c10.367-16.327 19.132-34.359 24.68-52.894 1.148-3.77 1.148-3.77 2.605-7.461 2.11-5.537 3.319-11.286 4.605-17.059l.776-3.285c3.949-17.603 4.453-35.243 4.287-53.215-.01-1.932-.02-3.865-.027-5.797-.022-4.651-.056-9.302-.098-13.953Z" fill="#A32642"/><path d="M462 1076h1l.212 2.006c2.183 20.401 4.383 40.904 10.151 60.654 1.26 6.603-.73 11.8-3.75 17.602l-1.028 2.036a1056.453 1056.453 0 0 1-3.272 6.39c-.717 1.407-1.432 2.815-2.147 4.224-1.402 2.76-2.807 5.518-4.216 8.274l-1.006 1.97-2.543 4.964c-4.197 8.279-8.014 16.71-11.776 25.193l-1.039 2.338C428.983 1242.348 416.684 1273.53 405 1305c-3.7-1.234-4.235-2.408-6.371-5.61l-1.975-2.946-2.091-3.194-2.136-3.258c-2.16-3.32-4.296-6.654-6.427-9.992l-1.97-3.048a428.68 428.68 0 0 1-5.217-8.39l-1.621-2.52-1.422-2.413-1.263-2.06c-.833-4.222.93-7.659 2.493-11.569l.85-2.156c.891-2.203 1.814-4.39 2.748-6.574l1.05-2.475a2635.92 2635.92 0 0 1 3.414-7.983l1.192-2.782c7.82-18.222 16.193-36.151 24.81-54.007 1.692-3.509 3.36-7.029 5.018-10.554 14.005-29.747 29.571-58.94 45.918-87.469Z" fill="#4D2953"/><path d="M1559 962c5.136 10.269 9.715 20.56 13.75 31.313l1.14 3.034c6.203 16.754 6.203 16.754 6.11 23.653l-2.433.779a17200.149 17200.149 0 0 0-30.63 9.846l-2.456.791c-21.418 6.905-42.777 13.894-63.862 21.772l-2.17.805a981.86 981.86 0 0 0-5.542 2.087c-2.907.92-2.907.92-6.907.92l-1.398-3.305c-5.356-12.456-11.19-24.882-18.899-36.086C1444 1015 1444 1015 1444 1013c38.018-17.737 76.405-34.562 115-51ZM480 964c8.77 3.3 17.413 6.816 26 10.563l3.796 1.65c14.953 6.512 29.845 13.163 44.744 19.798A6864.096 6864.096 0 0 0 593 1013l-1.262 1.945c-8.06 14.164-12.022 30.326-15.738 46.055l-2.034-.76a5572.833 5572.833 0 0 0-21.21-7.855c-2.327-.857-4.653-1.718-6.977-2.582-22.148-8.217-44.672-15.272-67.191-22.392-4.541-1.437-9.075-2.886-13.588-4.411 8.117-52.117 8.117-52.117 15-59Z" fill="#A46910"/><path d="M1424 1361c4.358 7.987 8.69 15.988 13 24l1.584 2.943c7.975 14.878 15.195 30.04 22.186 45.398a91.146 91.146 0 0 0 2.394 4.828C1464 1440 1464 1440 1464 1443c-13.88 5.915-27.77 11.48-42.125 16.125l-3.495 1.144c-6.174 1.952-11.916 3.28-18.38 3.731l-1.031-2.49c-6.818-16.404-13.837-32.687-21.407-48.76l-.993-2.119c-3.842-8.175-7.861-16.181-12.304-24.048C1363 1384 1363 1384 1363 1381l1.854-.516c18.018-5.045 36.355-10.204 53.123-18.671C1420 1361 1420 1361 1424 1361Z" fill="#5C153A"/><path d="M1266.387 1181.395c9.805 6.024 16.556 14.425 19.613 25.605 1.312 12.957-.882 23.93-9.281 34.258-3.197 3.24-6.747 5.552-10.719 7.742l-2.238 1.258c-8.21 3.946-17.898 4.062-26.696 2.082-9.412-3.392-16.814-9.927-22.066-18.34l-1.254-1.84c-4.635-8.155-4.237-20.278-1.98-29.18A36.922 36.922 0 0 1 1215 1197l1.813-3.125c11.743-15.435 31.671-21.32 49.574-12.48Z" fill="#FDFDFD"/><path d="m856 1191 2.133 2.137c1.905 1.905 3.817 3.803 5.734 5.695 5.608 5.547 11.035 11.143 16.133 17.168.9 1.037 1.801 2.074 2.703 3.11a509.573 509.573 0 0 1 18.857 23.024c1.502 1.946 3.014 3.885 4.526 5.823 23.7 30.522 44.24 63.224 62.439 97.285.975 1.823 1.954 3.643 2.938 5.461 12.497 23.1 22.935 47.063 32.85 71.36l1.002 2.443c.94 2.299 1.87 4.6 2.798 6.904l.844 2.06c1.526 3.83 2.526 7.44 3.043 11.53-2.214-2.774-3.784-5.444-5.207-8.691l-1.255-2.82-1.35-3.052C994.154 1408.214 982.59 1386.873 970 1366l-1.7-2.821c-7.059-11.664-14.426-23.05-22.3-34.179l-1.252-1.782c-9.226-13.126-18.687-26.044-29.166-38.202-2.415-2.82-4.755-5.686-7.082-8.579-4.433-5.446-9.143-10.585-13.928-15.721a270.41 270.41 0 0 1-3.408-3.797c-6.334-7.162-13.023-13.931-19.794-20.679a2702.588 2702.588 0 0 1-5.798-5.804c-6.02-6.023-12.037-11.966-18.572-17.436l-8-7a691.967 691.967 0 0 1 7.605-7.535l2.582-2.527 2.606-2.536c1.94-2.112 3.122-3.778 4.207-6.402ZM1176 1194c2.876 3.636 5.239 7.535 7.625 11.5l1.234 2.012 1.18 1.957 1.069 1.763c.958 1.9 1.452 3.693 1.892 5.768-2.498 2.356-4.999 4.71-7.5 7.063l-2.11 1.99c-4.133 3.884-8.324 7.672-12.64 11.353-1.757 1.6-3.284 3.277-4.813 5.094-3.535 4.186-7.41 7.975-11.312 11.813-5.17 5.104-9.957 10.303-14.457 16.019-2.413 2.969-4.99 5.756-7.605 8.543-5.15 5.521-9.72 11.37-14.251 17.401-2.82 3.704-5.736 7.334-8.646 10.968-2.49 3.139-4.623 6.317-6.666 9.756a536.744 536.744 0 0 1-4.938 6.688c-27.73 37.472-49.946 78.894-69.062 121.312-1.262-3.787-.531-4.877.922-8.54l1.34-3.406 1.488-3.679 1.529-3.824c4.946-12.315 10.205-24.48 15.721-36.551l.887-1.944c21.854-47.818 48.072-93.286 80.113-135.056l1.478-1.933c5.766-7.514 11.767-14.805 17.924-22 2.325-2.725 4.557-5.514 6.785-8.317 4.827-5.954 10.107-11.467 15.406-17.001l2.028-2.124 1.826-1.898c1.74-1.852 1.74-1.852 3.553-4.727Z" fill="#A66B11"/><path d="M1674 1235c3.248 4.872 5.308 10.325 7.625 15.688l.856 1.977c13.956 32.337 26.468 65.248 38.519 98.335l.844 2.313c12.083 33.119 22.78 66.703 32.156 100.687l1.64 5.86a946.35 946.35 0 0 1 7.235 27.515l.653 2.576c1.715 7.126 2.34 13.444-.028 20.549l-.844 2.594L1762 1515h-2l-.971-3.86c-10.75-42.59-23.137-84.504-37.325-126.073-.926-2.72-1.844-5.442-2.761-8.165-9.886-29.309-20.768-58.184-32.255-86.902l-1.28-3.199c-1.233-3.08-2.47-6.16-3.709-9.238l-1.192-2.973c-1.913-4.742-3.869-9.456-5.926-14.137l-1.15-2.635c-.71-1.62-1.432-3.236-2.168-4.845-1.762-4.024-2.847-6.633-1.263-10.973 1.18-2.45 2.584-4.67 4-7Z" fill="#CA63C2"/><path d="M774 1161c4.39.91 7.57 3.21 11.188 5.75l2.12 1.475c8.087 5.675 15.906 11.697 23.692 17.775l1.948 1.518A1916.827 1916.827 0 0 1 835 1205c-3.775 6.895-9.81 10.964-17 14-11.492 2.914-23.755 2.013-34-4-9-5.853-14.54-15.713-17-26-1.187-10.3.678-19.716 7-28Z" fill="#FDFDFD"/><path d="M799.098 1144.465c4.734-.67 7.221.07 11.203 2.793 3.093 2.546 6.016 5.263 8.91 8.031 2.283 2.183 4.614 4.311 6.947 6.44a295.942 295.942 0 0 1 3.27 3.052c2.391 2.264 4.727 4.333 7.385 6.293 3.616 2.695 5.841 4.421 6.875 8.918.342 9.099-1.932 17.867-7.688 25.008-4.423-.462-7.101-3.466-10.25-6.313-7.596-6.685-15.594-12.707-23.75-18.687l-3.996-2.953c-7.898-5.83-15.835-11.6-24.004-17.047 7.29-8.005 14.586-12.853 25.098-15.535Z" fill="#A8A4A5"/><path d="M1589 1065a77.97 77.97 0 0 1 6.047 9.313l1.788 3.216 1.915 3.471.991 1.792c11.01 19.908 21.792 39.924 31.84 60.338a1791.09 1791.09 0 0 0 4.233 8.49 2393.71 2393.71 0 0 1 12.873 26.068l1.028 2.114c6.618 13.634 12.9 27.403 18.994 41.279.832 1.882 1.677 3.76 2.537 5.63l1.117 2.434.97 2.08c.992 2.64.715 4.189-.333 6.775l-1.563 3.063c-1.73 2.99-1.73 2.99-1.437 6.937h-2l-.41-1.623c-2.34-8.512-5.97-16.418-9.59-24.44l-2.145-4.78c-1.894-4.215-3.8-8.423-5.709-12.63a5274.764 5274.764 0 0 1-3.336-7.374c-9.651-21.33-19.79-42.396-30.247-63.34l-1.632-3.274A1141.56 1141.56 0 0 0 1592 1087l-1 14h-1l-1-36Z" fill="#74417F"/><path d="M936 1294c4.06 1.507 5.456 3.831 7.652 7.477l1.02 1.676c1.1 1.818 2.183 3.644 3.265 5.472l2.29 3.821c6.402 10.73 12.446 21.64 18.264 32.697 1.479 2.8 2.98 5.587 4.486 8.373 11.905 22.187 21.83 45.251 31.336 68.546l1.002 2.444c.94 2.299 1.87 4.6 2.798 6.904l.844 2.06c1.526 3.83 2.526 7.44 3.043 11.53-2.214-2.774-3.784-5.444-5.207-8.691l-1.255-2.82-1.35-3.052C994.154 1408.214 982.59 1386.873 970 1366l-1.7-2.821c-7.059-11.663-14.423-23.053-22.3-34.179l-1.3-1.846c-5.754-8.163-11.666-16.196-17.7-24.154 1.362-3.22 2.725-4.817 5.625-6.75l1.914-1.297L936 1294Z" fill="#835B08"/><path d="M449 1196c1.255 3.765.55 4.965-.773 8.66l-1.238 3.542-.673 1.9c-10.16 28.825-17.579 58.8-22.945 88.87l-.412 2.308c-.669 3.755-1.323 7.512-1.956 11.273l-.706 4.08-.614 3.653L419 1323l-2 1c-2.008-2.62-4.005-5.246-6-7.875l-1.734-2.262-1.641-2.168-1.523-2C405 1308 405 1308 405 1306l-2-1h2l.28-2.411c.916-4.568 2.521-8.682 4.228-13.007l1.083-2.782c1.171-2.998 2.352-5.993 3.534-8.987l1.22-3.105c20.97-53.338 20.97-53.338 33.655-78.708Z" fill="#814285"/><path d="M1586 1196c3.877 4.836 6.056 10.37 8.563 16l.833 1.865c11.173 25.06 21.448 50.564 31.229 76.197l1.38 3.6 1.222 3.248 1.049 2.786C1631 1302 1631 1302 1631 1305l2 1h-2l-.68 2.074c-1.667 3.696-3.932 6.58-6.445 9.738l-1.418 1.811A946.629 946.629 0 0 1 1619 1324l-2-1a121.149 121.149 0 0 1-1.664-8.09l-.949-5.203-.498-2.787c-4.749-26.416-10.516-52.413-18.076-78.17l-.62-2.112c-2.475-8.389-5.199-16.646-8.268-24.836C1586 1199 1586 1199 1586 1196Z" fill="#804284"/><path d="M1091 1305c3.837 1.563 6.392 3.795 9 7-.134 4.838-2.963 8.024-5.813 11.688-28.04 37.194-50.096 78.952-69.187 121.312-1.262-3.787-.531-4.877.922-8.54l1.34-3.406 1.488-3.679 1.529-3.824c4.946-12.315 10.205-24.48 15.721-36.551l.887-1.944c31.935-69.878 31.935-69.878 44.113-82.056Z" fill="#7C5608"/><path d="M1749 1551h1c.51 2.957 1.008 5.915 1.5 8.875l.434 2.492c1.96 11.954.648 20.29-3.746 31.633-.495 1.31-.988 2.62-1.48 3.93-4.865 12.842-10.208 25.488-15.708 38.07h-2a674.691 674.691 0 0 1-3.188-11.438c-.31-1.069-.622-2.138-.943-3.24-1.908-7.172-2.131-11.642 1.131-18.322l1.096-2.383a394.034 394.034 0 0 1 3.841-7.867c6.679-13.647 12.38-27.667 18.063-41.75ZM286 1553h2l.895 2.218c1.16 2.86 2.325 5.719 3.494 8.576.533 1.305 1.063 2.611 1.592 3.918 3.007 7.429 6.136 14.71 9.851 21.815 10.772 20.796 10.772 20.796 8.106 30.723a72.809 72.809 0 0 1-2.188 5.854c-1.27 3.212-1.97 6.536-2.75 9.896h-2c-13.758-32.926-13.758-32.926-18.875-46.563l-.99-2.547c-3.201-8.739-2.28-16.453-.635-25.453l.434-2.478c.348-1.988.706-3.973 1.066-5.959Z" fill="#0D0116"/><path d="m1760 1518 2 1c.852 2.914.852 2.914 1.625 6.625.26 1.21.52 2.418.79 3.664 1.127 7.142.29 12.706-1.821 19.488l-.74 2.459c-.776 2.57-1.565 5.136-2.354 7.701l-1.59 5.252A3110.728 3110.728 0 0 1 1754 1577h-1a1304.67 1304.67 0 0 1-1.5-8.813l-.434-2.466c-2.075-12.6-.439-22.083 3.934-33.909.483-1.346.965-2.693 1.445-4.04 1.167-3.264 2.355-6.52 3.555-9.772Z" fill="#AA5518"/><path d="M843 1178c2.36 1.97 4.686 3.976 7 6l1.836 1.559c1.664 1.504 1.664 1.504 4.164 4.441.142 3.857-1.548 5.854-4.02 8.586a325.46 325.46 0 0 1-3.793 3.789l-1.908 1.98-1.861 1.856-1.695 1.697c-1.723 1.092-1.723 1.092-3.937.766L837 1208c-.817-2.342-1.16-3.563-.293-5.93l1.106-1.945c3.887-7.32 4.682-13.913 5.187-22.125Z" fill="#212C35"/><path d="M1032 1425c1.162 3.486.886 3.864-.652 7.012l-1.104 2.295-1.181 2.38-1.17 2.417c-.956 1.97-1.92 3.934-2.893 5.896-1.412-4.235.265-7.149 1.813-11.125l.83-2.246c2.095-5.498 2.095-5.498 4.357-6.629Z" fill="#986E09"/><path d="M1051 2038c-3.047 2.031-3.601 2.247-7.012 2.195l-2.295-.02-2.38-.05-2.417-.027c-1.965-.024-3.93-.06-5.896-.098v-1c2.582-.363 5.165-.716 7.75-1.063l2.21-.314c3.65-.481 6.517-.668 10.04.377ZM986 2037l19 2v1c-2.792.08-5.582.14-8.375.188l-2.406.076c-2.075.026-4.15-.11-6.219-.264l-2-3Z" fill="#3A2B9E"/><path d="m1033 1634 2 1-11 14-1-2c1.328-2.531 1.328-2.531 3.25-5.5l1.89-2.969C1030 1636 1030 1636 1033 1634Z" fill="#652379"/><path d="M1006 1429c2.363 2.363 3.038 4.312 4.188 7.438l1.105 2.933C1012 1442 1012 1442 1011 1445a701.002 701.002 0 0 1-3.063-6.313l-1.722-3.55C1005 1432 1005 1432 1006 1429Z" fill="#9C720A"/><path d="M449 1196c1.16 3.479.775 4.342-.438 7.688l-.87 2.449L447 1208h-3c1.31-4.234 2.944-8.074 5-12Z" fill="#713E7D"/></svg>