<?xml version="1.0" encoding="UTF-8" standalone="no"?>
<!-- Created with Inkscape (http://www.inkscape.org/) -->

<svg
   version="1.1"
   id="svg1"
   width="299.07355"
   height="299.07687"
   viewBox="0 0 299.07355 299.07687"
   xmlns="http://www.w3.org/2000/svg"
   xmlns:svg="http://www.w3.org/2000/svg">
  <defs
     id="defs1">
    <linearGradient
       x1="0"
       y1="0"
       x2="1"
       y2="0"
       gradientUnits="userSpaceOnUse"
       gradientTransform="matrix(-642.084,259.419,259.419,642.084,3481.57,2887)"
       spreadMethod="pad"
       id="linearGradient4">
      <stop
         style="stop-opacity:1;stop-color:#58141c"
         offset="0"
         id="stop3" />
      <stop
         style="stop-opacity:1;stop-color:#ee2641"
         offset="1"
         id="stop4" />
    </linearGradient>
    <clipPath
       clipPathUnits="userSpaceOnUse"
       id="clipPath4">
      <path
         d="m 2901.9,3275.33 c -47.3,-47.31 -47.18,-124.83 0.27,-172.27 l 344.71,-344.71 c 47.44,-47.45 124.97,-47.55 172.26,-0.25 47.31,47.3 47.19,124.82 -0.25,172.27 l -344.72,344.69 c -47.45,47.45 -124.97,47.57 -172.27,0.27 z"
         transform="translate(0,2.5e-5)"
         id="path4" />
    </clipPath>
    <linearGradient
       x1="0"
       y1="0"
       x2="1"
       y2="0"
       gradientUnits="userSpaceOnUse"
       gradientTransform="matrix(828.047,828.047,828.047,-828.047,3182.61,2822.61)"
       spreadMethod="pad"
       id="linearGradient6">
      <stop
         style="stop-opacity:1;stop-color:#ee2641"
         offset="0"
         id="stop5" />
      <stop
         style="stop-opacity:1;stop-color:#c51e34"
         offset="1"
         id="stop6" />
    </linearGradient>
    <clipPath
       clipPathUnits="userSpaceOnUse"
       id="clipPath6">
      <path
         d="m 4074.9,3413.86 c 47.44,47.46 47.56,124.98 0.27,172.29 -47.31,47.29 -124.83,47.17 -172.28,-0.28 l -483.49,-483.5 c -47.45,-47.45 -38.96,-38.96 -86.27,-86.26 -107.11,-107.13 -253.62,-90.4 -301.04,-42.98 0.09,-0.09 214.95,-214.95 215.04,-215.03 47.3,-47.3 124.83,-47.19 172.27,0.25 z"
         transform="translate(0,2.5e-5)"
         id="path6" />
    </clipPath>
    <linearGradient
       x1="0"
       y1="0"
       x2="1"
       y2="0"
       gradientUnits="userSpaceOnUse"
       gradientTransform="matrix(259.419,642.084,642.084,-259.419,3720.33,2351.72)"
       spreadMethod="pad"
       id="linearGradient8">
      <stop
         style="stop-opacity:1;stop-color:#58141c"
         offset="0"
         id="stop7" />
      <stop
         style="stop-opacity:1;stop-color:#ee2641"
         offset="1"
         id="stop8" />
    </linearGradient>
    <clipPath
       clipPathUnits="userSpaceOnUse"
       id="clipPath8">
      <path
         d="m 4108.65,2931.38 c -47.3,47.3 -124.82,47.18 -172.26,-0.27 l -344.71,-344.7 c -47.45,-47.45 -47.56,-124.97 -0.25,-172.27 47.29,-47.3 124.82,-47.19 172.26,0.25 l 344.7,344.72 c 47.45,47.45 47.57,124.97 0.26,172.27 z"
         transform="translate(0,2.5e-5)"
         id="path8" />
    </clipPath>
    <linearGradient
       x1="0"
       y1="0"
       x2="1"
       y2="0"
       gradientUnits="userSpaceOnUse"
       gradientTransform="matrix(828.052,-828.052,-828.052,-828.052,3655.94,2650.67)"
       spreadMethod="pad"
       id="linearGradient10">
      <stop
         style="stop-opacity:1;stop-color:#ee2641"
         offset="0"
         id="stop9" />
      <stop
         style="stop-opacity:1;stop-color:#c51e34"
         offset="1"
         id="stop10" />
    </linearGradient>
    <clipPath
       clipPathUnits="userSpaceOnUse"
       id="clipPath10">
      <path
         d="m 4247.19,1758.38 c 47.46,-47.44 124.98,-47.56 172.28,-0.27 47.3,47.3 47.17,124.82 -0.27,172.28 l -483.51,483.48 c -47.45,47.46 -38.95,38.96 -86.26,86.28 -107.13,107.12 -90.4,253.62 -42.97,301.04 -0.09,-0.09 -214.96,-214.95 -215.03,-215.04 -47.31,-47.3 -47.19,-124.83 0.25,-172.28 z"
         transform="translate(0,2.5e-5)"
         id="path10" />
    </clipPath>
    <linearGradient
       x1="0"
       y1="0"
       x2="1"
       y2="0"
       gradientUnits="userSpaceOnUse"
       gradientTransform="matrix(642.093,-259.422,-259.422,-642.093,3185.1,2113.01)"
       spreadMethod="pad"
       id="linearGradient12">
      <stop
         style="stop-opacity:1;stop-color:#58141c"
         offset="0"
         id="stop11" />
      <stop
         style="stop-opacity:1;stop-color:#ee2641"
         offset="1"
         id="stop12" />
    </linearGradient>
    <clipPath
       clipPathUnits="userSpaceOnUse"
       id="clipPath12">
      <path
         d="m 3764.78,1724.67 c 47.3,47.3 47.18,124.82 -0.27,172.26 l -344.71,344.72 c -47.44,47.45 -124.97,47.56 -172.26,0.25 -47.31,-47.29 -47.19,-124.82 0.25,-172.26 l 344.72,-344.7 c 47.45,-47.46 124.97,-47.58 172.27,-0.27 z"
         transform="translate(0,2.5e-5)"
         id="path12" />
    </clipPath>
    <linearGradient
       x1="0"
       y1="0"
       x2="1"
       y2="0"
       gradientUnits="userSpaceOnUse"
       gradientTransform="matrix(-828.057,-828.057,-828.057,828.057,3484.07,2177.4)"
       spreadMethod="pad"
       id="linearGradient14">
      <stop
         style="stop-opacity:1;stop-color:#ee2641"
         offset="0"
         id="stop13" />
      <stop
         style="stop-opacity:1;stop-color:#c51e34"
         offset="1"
         id="stop14" />
    </linearGradient>
    <clipPath
       clipPathUnits="userSpaceOnUse"
       id="clipPath14">
      <path
         d="m 2591.78,1586.13 c -47.44,-47.46 -47.56,-124.98 -0.28,-172.28 47.31,-47.29 124.83,-47.17 172.29,0.27 l 483.48,483.52 c 47.46,47.45 38.96,38.94 86.27,86.26 107.12,107.13 253.63,90.4 301.05,42.97 -0.09,0.09 -214.95,214.96 -215.04,215.03 -47.3,47.31 -124.83,47.19 -172.28,-0.25 z"
         transform="translate(0,2.5e-5)"
         id="path14" />
    </clipPath>
    <linearGradient
       x1="0"
       y1="0"
       x2="1"
       y2="0"
       gradientUnits="userSpaceOnUse"
       gradientTransform="matrix(-259.419,-642.084,-642.084,259.419,2946.34,2648.29)"
       spreadMethod="pad"
       id="linearGradient16">
      <stop
         style="stop-opacity:1;stop-color:#58141c"
         offset="0"
         id="stop15" />
      <stop
         style="stop-opacity:1;stop-color:#ee2641"
         offset="1"
         id="stop16" />
    </linearGradient>
    <clipPath
       clipPathUnits="userSpaceOnUse"
       id="clipPath16">
      <path
         d="m 2558.02,2068.63 c 47.3,-47.3 124.82,-47.18 172.26,0.26 l 344.72,344.7 c 47.45,47.45 47.56,124.99 0.25,172.28 -47.29,47.3 -124.82,47.19 -172.26,-0.25 l -344.7,-344.72 c -47.46,-47.46 -47.58,-124.98 -0.27,-172.27 z"
         transform="translate(0,2.5e-5)"
         id="path16" />
    </clipPath>
    <linearGradient
       x1="0"
       y1="0"
       x2="1"
       y2="0"
       gradientUnits="userSpaceOnUse"
       gradientTransform="matrix(-828.062,828.063,828.063,828.062,3010.75,2349.35)"
       spreadMethod="pad"
       id="linearGradient18">
      <stop
         style="stop-opacity:1;stop-color:#ee2641"
         offset="0"
         id="stop17" />
      <stop
         style="stop-opacity:1;stop-color:#c51e34"
         offset="1"
         id="stop18" />
    </linearGradient>
    <clipPath
       clipPathUnits="userSpaceOnUse"
       id="clipPath18">
      <path
         d="m 2419.48,3241.63 c -47.46,47.44 -124.98,47.56 -172.28,0.27 -47.29,-47.3 -47.17,-124.82 0.27,-172.28 l 483.52,-483.48 c 47.45,-47.46 38.94,-38.96 86.26,-86.27 107.13,-107.14 90.4,-253.64 42.97,-301.06 0.09,0.1 214.96,214.96 215.03,215.04 47.31,47.31 47.19,124.85 -0.25,172.29 z"
         transform="translate(0,2.5e-5)"
         id="path18" />
    </clipPath>
  </defs>
  <g
     id="g1"
     transform="translate(-294.90814,-183.79499)">
    <g
       id="group-R5">
      <path
         id="path3"
         d="m 2901.9,3275.33 c -47.3,-47.31 -47.18,-124.83 0.27,-172.27 l 344.71,-344.71 c 47.44,-47.45 124.97,-47.55 172.26,-0.25 47.31,47.3 47.19,124.82 -0.25,172.27 l -344.72,344.69 c -47.45,47.45 -124.97,47.57 -172.27,0.27"
         style="fill:url(#linearGradient4);fill-opacity:1;fill-rule:nonzero;stroke:none"
         transform="matrix(0.13333333,0,0,-0.13333333,0,666.66667)"
         clip-path="url(#clipPath4)" />
      <path
         id="path5"
         d="m 4074.9,3413.86 c 47.44,47.46 47.56,124.98 0.27,172.29 -47.31,47.29 -124.83,47.17 -172.28,-0.28 l -483.49,-483.5 c -47.45,-47.45 -38.96,-38.96 -86.27,-86.26 -107.11,-107.13 -253.62,-90.4 -301.04,-42.98 0.09,-0.09 214.95,-214.95 215.04,-215.03 47.3,-47.3 124.83,-47.19 172.27,0.25 l 655.5,655.51"
         style="fill:url(#linearGradient6);fill-opacity:1;fill-rule:nonzero;stroke:none"
         transform="matrix(0.13333333,0,0,-0.13333333,0,666.66667)"
         clip-path="url(#clipPath6)" />
      <path
         id="path7"
         d="m 4108.65,2931.38 c -47.3,47.3 -124.82,47.18 -172.26,-0.27 l -344.71,-344.7 c -47.45,-47.45 -47.56,-124.97 -0.25,-172.27 47.29,-47.3 124.82,-47.19 172.26,0.25 l 344.7,344.72 c 47.45,47.45 47.57,124.97 0.26,172.27"
         style="fill:url(#linearGradient8);fill-opacity:1;fill-rule:nonzero;stroke:none"
         transform="matrix(0.13333333,0,0,-0.13333333,0,666.66667)"
         clip-path="url(#clipPath8)" />
      <path
         id="path9"
         d="m 4247.19,1758.38 c 47.46,-47.44 124.98,-47.56 172.28,-0.27 47.3,47.3 47.17,124.82 -0.27,172.28 l -483.51,483.48 c -47.45,47.46 -38.95,38.96 -86.26,86.28 -107.13,107.12 -90.4,253.62 -42.97,301.04 -0.09,-0.09 -214.96,-214.95 -215.03,-215.04 -47.31,-47.3 -47.19,-124.83 0.25,-172.28 l 655.51,-655.49"
         style="fill:url(#linearGradient10);fill-opacity:1;fill-rule:nonzero;stroke:none"
         transform="matrix(0.13333333,0,0,-0.13333333,0,666.66667)"
         clip-path="url(#clipPath10)" />
      <path
         id="path11"
         d="m 3764.78,1724.67 c 47.3,47.3 47.18,124.82 -0.27,172.26 l -344.71,344.72 c -47.44,47.45 -124.97,47.56 -172.26,0.25 -47.31,-47.29 -47.19,-124.82 0.25,-172.26 l 344.72,-344.7 c 47.45,-47.46 124.97,-47.58 172.27,-0.27"
         style="fill:url(#linearGradient12);fill-opacity:1;fill-rule:nonzero;stroke:none"
         transform="matrix(0.13333333,0,0,-0.13333333,0,666.66667)"
         clip-path="url(#clipPath12)" />
      <path
         id="path13"
         d="m 2591.78,1586.13 c -47.44,-47.46 -47.56,-124.98 -0.28,-172.28 47.31,-47.29 124.83,-47.17 172.29,0.27 l 483.48,483.52 c 47.46,47.45 38.96,38.94 86.27,86.26 107.12,107.13 253.63,90.4 301.05,42.97 -0.09,0.09 -214.95,214.96 -215.04,215.03 -47.3,47.31 -124.83,47.19 -172.28,-0.25 l -655.49,-655.52"
         style="fill:url(#linearGradient14);fill-opacity:1;fill-rule:nonzero;stroke:none"
         transform="matrix(0.13333333,0,0,-0.13333333,0,666.66667)"
         clip-path="url(#clipPath14)" />
      <path
         id="path15"
         d="m 2558.02,2068.63 c 47.3,-47.3 124.82,-47.18 172.26,0.26 l 344.72,344.7 c 47.45,47.45 47.56,124.99 0.25,172.28 -47.29,47.3 -124.82,47.19 -172.26,-0.25 l -344.7,-344.72 c -47.46,-47.46 -47.58,-124.98 -0.27,-172.27"
         style="fill:url(#linearGradient16);fill-opacity:1;fill-rule:nonzero;stroke:none"
         transform="matrix(0.13333333,0,0,-0.13333333,0,666.66667)"
         clip-path="url(#clipPath16)" />
      <path
         id="path17"
         d="m 2419.48,3241.63 c -47.46,47.44 -124.98,47.56 -172.28,0.27 -47.29,-47.3 -47.17,-124.82 0.27,-172.28 l 483.52,-483.48 c 47.45,-47.46 38.94,-38.96 86.26,-86.27 107.13,-107.14 90.4,-253.64 42.97,-301.06 0.09,0.1 214.96,214.96 215.03,215.04 47.31,47.31 47.19,124.85 -0.25,172.29 l -655.52,655.49"
         style="fill:url(#linearGradient18);fill-opacity:1;fill-rule:nonzero;stroke:none"
         transform="matrix(0.13333333,0,0,-0.13333333,0,666.66667)"
         clip-path="url(#clipPath18)" />
    </g>
  </g>
</svg>
